<svg xmlns="http://www.w3.org/2000/svg" width="380" height="380" fill="none" viewBox="0 0 380 380"><g fill="#000" fill-rule="evenodd" clip-rule="evenodd"><path d="M202.1 148.2c.8-1 3.1.7 3.5 2-1.3-.6-2-1.7-3.5-2m7 4.8c-.7 1.2-1.6-.8-2.6-.8-.2.9 1.1.3.8 1.4-1-.3-1.4-1-2.3-1.2.8-1.8 3.2-.2 4 .6m-6.5 1.7c2.3.3 2.9 2.2 3.7 4-1.4-1.3-2.2-3-3.7-4m12.1 1.1q1 .8 1.4 1.8c-1.2 0-2-1-1.4-1.8m-1.4 2.3c1.2.4 1 2.2 2.3 2.3-.7 1.4-2.4-.9-2.3-2.3"/><path d="M214.4 158.4c.9.5 1.4.2 2.3.5-.3 1-2.5.6-2.3-.5m-16.1.3a7 7 0 0 1 5.1 2.9q-2.6-1.4-5.1-2.9m22.3 1.4c-.8-.1-1.3-.7-2-.8.5-1.3 2-.1 2 .8m-27.5-.8c.8 0 1.6 0 1.4.8-.6-.6-.7 0-1.4 0zm4 0c2.4.5 4.7 1.3 5.7 3.4-1.7-1.4-3.9-2.2-5.7-3.4m10.8.4h1.3c.5 1-1.8 1-1.3 0"/><path d="M221 161.8c-1-.4-1.1-1.6-3-1.2.5-1.2 3.3-.3 3 1.2m-20 .8c-.8-1-2.6-1-3-2.3 1 .7 3 .5 3 2.3m17.8-1.4q1.5.2 1.4 1.7c-.6-.4-1.4-.8-1.4-1.7m-3.3 5c.3-1 1.9-.2 1.7.8zm0 0c0 .7 0 1.8-.8 1.8-.2-.8.4-.7.3-1.4-1.3-.6-.4 1.1-1.4.8-1-1 1.2-1.8 2-1.2m-7.7 0h.8c-1 1.5.8 1.6 1.1 2.6-.4 2.5-1.4 3.3-1.4 5.7-1.6 0-1.8-1.4-2.2-2.5 1.2-.3.5 1.4 1.3 1.7 1-1.4-.5-2.4-.8-3.5 1 0 .8.8 1.4 1.2 2.2-1.5-.6-3-.2-5.2m2.3.6h1.1c.7.8.8 2.2 2 2.5 1 .1.6-1 1.7-.8.3 1.2-2.4 2.5-2.3.8l-.6.8c-.8-.9-.8-2.7-2-3.4zm-22.8.6c1.6 0 2 1.2 3.7 1.1-1 1.4-3.1-.3-3.7-1.1m-1.4.9c1-.5 2.5 1 3.1 1.7-1.6 0-2-1.2-3-1.7m15.8 0c.5 0 .5.2.8.2-.2.5-.2 1.2-1.1.8 0-.4.3-.5.2-1.1zm15 .2q-.8 1.8-2.5 2.5.7-1.8 2.5-2.5m-22.4 6.3c-.4.6-.5 1.5-1.4 1.4q.2-1.2 1.4-1.4m.9.2c1 1.4-1.4 2.1-2 3-.7-1.6 1.8-1.7 2-3m-3.7 1.2c.3 1.1-.9 1.6-1.3 1.1q0-1.2 1.3-1.1m24.4 1.1c-1 2.2-3 6.7-5.1 8-.6.3-2.3 1.5-2.9 0 4.8-.5 5.1-5.6 7.9-8z"/><path d="M207 184c3.3-1.2 5.9-4.5 7.8-6-1.8 2.8-3.8 5.5-7.8 6m21.2-5.5c-.3.4-.5 1.1-1.3 1.1q0-1.2 1.3-1.1m-30 .8h1.2c0 .8 1.1 1 .6 1.7-.5-.7-1.5-.8-1.7-1.7m21.7 2.3c-1 2.8-3.4 6.5-5.2 9.6 1-4 3-6.9 5.2-9.6"/><path d="M218 182.1q.7 0 .6.6c-3 2.4-3.6 6.9-5.4 10.5.4-4.9 2.7-7.9 4.8-11m13.9 3.6c1.2 5.4.1 12-2 16.7-1.2-4.6 1.6-11.1 2-16.7m-.2 6c0-.4.4-.7-.3 0 0 3.4-1.6 6.8-1.1 9.9.4-2.8 1.4-7.3 1.4-10m-17.9-5.3c.6.8-.6 4.7-1.7 5.7.2-2.2 1.1-3.8 1.7-5.7m-8.2.9h.8c.6.4.8 2.6 1.1 2.3.7.8-1.1 1.5-2 1.7-.3-1.4-.8-2.8 0-4m.9 2.5q.5-.8-.6-1.4c-.4.5-.4 1.6.6 1.4m30-2.5c1.7 4.6.6 13.2-3 15.5 1.5-4.9 1.7-11.2 3-15.5m-2 14a27 27 0 0 0 2-12.6c0 3.6-1.5 9.4-2 12.6M209 189.8c-.6 1.1-1.2 2.3-2.8 2.5.9-1 1.4-2 2.8-2.5m.2 1.1q-.6 2.1-2.8 2.6 1.3-1.5 2.8-2.6"/><path d="M209.8 191.2c1.4 1-1.4 2.5-1.4 4-.4-.5-2 .2-1.9-.8 2.3 0 2.9-1.5 3.4-3.1zm23.2 10.5c-.9.1-1.1-.5-1.7-.6.1-.9 1.6-.2 1.7.6m-2 0c.3.6 1.6.2 1.5 1.1-1 .1-1.6 0-1.4-1.1m-2.6 4.2q.7 0 1.1.2l-.8 3.1c-1.1-.3.1-2-.2-3.4zm-65.1 1.2q4.5 2.4 7.6 6.1a40 40 0 0 1-7.6-6.1m60.3.8c.5 0 1.9-.5 1.7.5-.6 0-2 .5-1.7-.5m44.2 2c-1.4 1.6-3.5 2.3-5.7 3.1-.3-2.2 2.7-4.1 5.7-3m-4.6 2.2c.7-1 2.6-1 3.1-2-1.3.2-3.5 1-3 2m2.2 2.5c.5-.6 2.3-.2 2 .8zm-48.7.6c4.2.4 8.6.9 11.1 3-3.3-1.3-7.7-1.8-11.1-3m9.6 5.6c-3.4-.2-7.9.6-10.5-.6q0-.4.2-.6l4.2.6c2.2 0 5.2-.9 6 .6zm40.5 2c-1.4 1 1.7 2 .8 3.5-.6-1.2-1.7-1.7-2-3.1-.5 0-.3.8-1 .6 0-1.5-1.6-1.2-1.5-2.6.6.6 1.8.6 1.8 1.8 1.1-.5-.6-2-1.4-2.3 1.4-1.6 1.8 2.1 3.4 2.3zm-110.1-.5c-.5-.4-1.9 0-1.8-.8.5-.4 2-.4 1.8.8"/><path d="M262 222.4c1.2-.6 2.1 1.2 2.8 2.3.5-.5 1.6-.5 1.4.5-.5.2-1.5-.3-1.4.3q-1.4-1.6-2.8-3.1m-48.2.2c3.3-.2 8.8-.2 11.1 1.4-4.1-.8-7.7-.5-11-1.4m2.7 1.5c0 .8-3.7.4-4-.2.5-.3 3-.2 4 .2m51.3-.6h.8c0 .8.7 2 .2 2.5-.8-.4-.8-1.7-1.1-2.5zm7.6 0c1.2-.2.6 2-.3 2 0-1 .5-1 .3-2m-52 1.4c-.9.7-4.5-.5-6.3-.6 1.2-1 4.9 0 6.2.6m54.1-.8c1.2.3 0 1.7-.2 2.3-.7-.5.2-1.7.2-2.3m-43.1.2c1.4 1.5 4.5 1.4 6.5 1.4-1.5 2-4.6 2.5-6.5.6.3-1 0-1 0-2m4.3 2c-1.3.8-2.5-.8-3.4-.3.2.7 3 1.6 3.4.3M221.7 226.3q-4.6-1-10-.8-.4-.4 0-.6c2.7-.2 7.7-.4 10 1.4m57.2-1.4c1.1-.1.6 2-.2 1.7-.3-1 .4-.8.2-1.7m1.7.6c1-.4.7 1.7.2 1.7-1.2 0 .2-.8-.2-1.7m-63.7.8c-1.4 1.1-4.8-.3-7 0 1.4-1.4 5 0 7 0m.2 0c1.2.2 2.9 0 3.1 1.1-1-.3-3 .2-3-1.1m.8 1.7c-2.4 0-7.4-.1-9.9-1.2 2.7 0 7.3.3 10 1.2m64.2-1.4c1.2 0 .5 2.2-.2 2-.1-1 .5-1 .2-2m10.4.6c.8 0 1.6 0 1.4.8-.2-.6-1.7.2-1.4-.8m-76.6 2c-1.8 0-7 0-9-.9 2-.3 6.6 0 9 .8m-10.9 2.5c.6.2 2-.4 1.8.6-.6-.1-2 .5-1.8-.6m6.9 1.8-3.7-.8c.4-1 3.6-.4 3.7.8m-2 .5c-1.9.6-4.2-.8-6.7-.5 1-1.8 5.2 0 6.8.5m-1.5 1.5c-1.4 0-5.3-.7-6.6-.8 1.2-1 5.2-.3 6.6.8m55.8 3.3c.3-1.7.6-3.5 2-4.2-.9 1.3-.6 3.5-2 4.2m-1.5-3.6c-.3 1.1-1.6 0-.6 1.3q-1.5.1-3 .8c0-.6.4-.8.2-1.7 1.2 0 2-.7 3.4-.5zm-90 2.3c-1-.5-1.2 0-1.7-.3 0-.7 2.1-1 1.7.3m-1.2.2c.8 0 1.6 0 1.4.8-.8 0-1.8.2-1.4-.8m-4.8.3c1 .5 3 0 3.1 1.2-1-.5-3 0-3-1.2m36 .3q1.3-.1 1.7.5c.2 1-1.9.1-1.7-.5m64.5.3q-.7 1.6-.8 3.7c-1.2-.7-.6-3.8.8-3.7m-64 1.4c0 .7-3.2.2-3.4-.8.7-.3 2.6.3 3.4.8m65.3-.8q0 1.8-1.7 2.3.1-1.9 1.7-2.3m.6 1.7q-.3 1.4-1.7 2 0-1.8 1.7-2m-43.2.2q1.7 0 2 1.7c-1.3-.8-1.4-.9-2.6 0 0-.8.7-.9.6-1.7m-23 1.2c.2.8 1 2 .6 2.5-1-.3-1.3-2.2-.6-2.5m66.8 0c1.1.3-.4 1.6-1.2 1.7-.2-1.2.8-1.2 1.2-1.7m.6 1.1c.9 1-1.4 2.3-2 1.7.4-.9 1.7-.7 2-1.7m-67.4 4.5c0 1-.8.6-1.4.5.7-2.3-1.6-3.2-2.5-4.5 3.3-.4 2.9 4.5 4 4zm67.7-3.1c1.3 0 .3 2-.6 1.7-.8-.8.7-.7.6-1.7m-78.5.9c1.9 0 3.4.4 3.7 2-1-1-3-.9-3.7-2m79.9.6c0 1-1 .9-1.2 1.7-1.1-.4.4-1.6 1.2-1.7m-80.4.5q2.4 0 3 1.7c-1-.4-2.5-.6-3-1.7m80.7 1c0 .9-.8 1.8-1.4 1.2 0-1 .7-1 1.4-1.1m.8 1.7q-.2 1.5-2 1.3.8-.9 2-1.3m24.4 0c3.2 1.3 7.6 1.3 10.7 2.8-4-.3-8.2-.8-10.7-2.8m-86.1.3q.8.1 1.7.6c0 .6-1 .2-1.2.6 0 1.1 1 1.1 1.2 2.2-.7 0-1-.4-2-.2 0-1.4.5-2 .3-3zm50.2.8q-.5.6-.8 1.4c-1-.1-.3-1.7.8-1.4m35 .6c1.5.3 3.4 0 4.7.6-.8 1-4 .4-4.6-.6m-23 .6q-.2 1.7-2.3 1.3c0-1.1 1.4-1 2.3-1.3m-113.8.3c-.4 1.1-4.2 1.4-4.8.2 2.3 0 3.3 0 4.8-.2m136.2.2q2 .5 4.6.6c-.7 1-4.4.7-4.6-.6m-34.9.4h.8q.1 1.2-1.1 1.1.2-.5.2-1.1zm-106.7.8q1.9 0 3.1.2c-.7.6-2.6.8-3-.2m119 0c1.6.4 0 2.1-1.3 1.7 0-1.2 1.6-.5 1.4-1.7m22 0c.3.5 1.8-.3 1.4.8-.8 0-1.8.2-1.3-.8m2.3.5c.4.2 1.4-.3 1.3.3.3 1.1-1.7.4-1.3-.3m-3.5.6c1.2.2 2 .6 3.5.6-.6.9-3.4.7-3.5-.6m-32.5.2h.8c0 .7-.4.8-.2 1.8-1.2 0-.8-1-.6-1.8m33.7 5.4c-.8-.8-1.3-2-2.3-2.5 1.3-.2 5 .8 6.7-1.1 1.5 1.2 3.2 2.1 4.8.2-1-1.4-2 0-3-.2.6-1.9 3.3-1 4.2 0-.5 1.4-1.6 1.9-2.3 2.5-.8.2-.6-.6-1.2-.6-.9.3.6 1.3-.2 1.7-.9-.2-3 .6-3-.6h2.4c-1-4.3-4.3-.4-6.1.6m0-.8c.8 0 1-.7 1.3-1.1h-1.7q0 .7.3 1.1zm-21-3.4q0 1.5-1.7 1.4c0-1 1-1.2 1.7-1.4"/><path d="M299.3 257.1c-2-.2-5.2.8-5.4-1.1 2.2 1 4.4-.4 5.4 1.1m-117.5-.2c-1 1-1.5 2.6-3.1 3 .6-1.3 1.8-3.3 3-3m-20.3.2c2.5-.3 4.3 2.7 5.4 4.6 0 1-1.3.8-1.7 1.4 2.4 1.3 6.5-2.2 8.5 1.7-.4 1.1-.8 0-1.4-.2-5.6 2-9.3-1.5-12.5-4.3 2.3 0 3.4 3.3 5.4 2 .2-.7-1-1.3-.2-1.4.9-.2.4 1 1.1 1.1 0-1.9-2.7-3.6-4.6-4.8zm6 7.5c1.5 0 3 .6 4-.8-1.4 0-3.4-.6-4 .8m142.1-6q-.4-.2-1.1-.2.3.5.2 1.4l.8.5c1 .1.7-.9 1.7-.5 0 1-1.6 1.3-2.2.8q.2.4.2 1.1c-1.3-.3-1-2.3-1.4-3.4-.9-.3-.3 1.1-1.4.8 0-1.5.6-1.4.6-2.3 1 .4 2.3.4 2.5 1.7zm-44.8-1.5c.1 1.2-1.1 1-1.1 2-.8-.7 0-2.3 1.1-2m36 .6q.2.4.6.6c0 .8-.7 1.3-1.1.8q.1-.4.5-.3c-.2-.8-.5.3-1.1 0q.1-1 1.1-1.1"/><path d="M160.9 258.3q2.7 0 3.4 2.3c-1-1-2.6-1.2-3.4-2.3m115.5.3c0 1-2.2 1.7-2 .2 1.2.3 1.2-1.1 2-.2m33.1 0h.6q0 .3.2.2v.6q-.2 0-.2.2h-.6q0-.2-.2-.2v-.6q.3 0 .2-.2m-4 .6q-.4 1.2-.2 2.8c-2-.4-.4 1.2-1.1 1.8-1-.3-.4-2-.8-2.6.9 0 .9.6 1.3 0 0-.5-.9-.2-1.1-.5l2-1.4zm-145 .2q3 .5 4 2.9c-.9-1.3-3-1.6-4-2.9m116.4.8c.3 1.4-1 1.3-1.9 1.4.6-.6 1-1.2 2-1.4m22 .4h3.7c-.1.8-3.6 1-3.7 0m-140.2.8c-.5 1.1-3.7-.4-3.7-.3.2-1 2.9.3 3.7.3m-6.5 0q4.4.6 8.8 1.7c-2 .8-6.8-.6-8.8-1.7m15.7.3c.6 0 .9.5 1.3.6 0 .5-2 .4-1.3-.6m130.1 0c1.2.2 3.1.5 4.2 0 0 1.6-4 1.5-4.2 0m-46.7 2.3c-1.9-1-4.3-1.2-6.1-1.4 1.6-1.1 5.6-.2 6.1 1.4m26.1-1.5c0 1-1.2 1.7-2 1.1q.9-.7 2-1.1m19.2.3q2 .8 4.8.6c-.4 1.4-4.3.7-4.8-.6m-13.6.6c2.9 1.2 6.2 1.7 7.7 4.2q-2-1.2-4.2-1.9c-1.2-.6-2.9-1-3.5-2.3"/><path d="M299.8 264.2c-1.5 1.7-4.2.8-6 0 1.1-1 3.9 1.2 6 0m-10.4-.2c1.2 0 2.6-.1 2.9.8-1-.1-2.7.1-2.9-.8m.2 4.4c-2.1-.9-3.5-2.5-5.9-3 2.4-.5 4.8 1.3 6 3M173 266.2h-2.3c0-1.3 2-1 2.3 0m83.8.3a20 20 0 0 1 11.3 8.2c-1.8.6-1.7-1.2-2.5-2.2-2.3-2.7-6-4-8.8-6m46.8 5.4c1.3.4-.3 1.4-.6 2 .6.8 1.3-.4 2-.3 0 1-.8 1-1.4 1.4q-2.2-.7-3.4-2.5 1.3.4 2 1.3.9-.7 1.3-2zm-99.4.2c2.3 1.5 3.2 4.4 3.7 7.7-1.5-2.3-2.2-5.4-3.7-7.7m0 2.3a9 9 0 0 1 2.9 6.5c-1-2-2.4-5-2.9-6.5m-.6 2c1.9 1 2.3 3.1 2.6 5.8-1.3-1.5-1.4-4.1-2.6-5.7m-.5 1.3c1.3 1 2 3 2.3 5.2-1.2-1.3-1.7-3.3-2.3-5.2m-1 .6c1.2 1.3 2.4 3.8 2.3 5.4-.4-1.2-2.1-4-2.3-5.4m-.5 1.1c1 1 2.3 3.4 2 4.8q-1.5-2-2-4.8"/><path d="M200.8 280.3c1 .7 3 4 1.1 4.8.4-2.4-.8-3-1.1-4.8m-12.3 42.2c1.4-.2 1.3 1 1.4 2-.9-.3-1-1.3-1.4-2m8.6 6.9c2.9.4 5 1.5 5.7 4.2-3 1.7-4.3-2.4-5.7-4.2m4.8 3.9c-.3-1.9-2-2.4-3.4-3.1.8 1.4 1.2 3 3.4 3m-7-3c2.3.3 4.2 2.5 4 4.6-2.6-.2-3.8-3-4-4.6m3.4 4c.2-1-1.5-2.4-2.6-3.1.3 1.7 1.6 2.2 2.6 3m-5-2.5q1.4 1.5 2.6 3c-2 0-2.4-1.3-2.6-3m-2.1.3c.8 1 1.2 2.3 2.3 3a2.4 2.4 0 0 1-2.3-3m177.5 9.8c-4 2.7-5.7-3-8.5-4.8-1.1-.8-2.3.1-2.8-1.3 5.8-2.1 7.3 4.5 11.3 6.1m-1.4-.2c-3-1.3-4-6.2-8.2-5.4 3.5.8 4.4 5.7 8.2 5.4"/><path d="M225.7 167.7c1.8 2.3 4.6 3.2 6.8 5.4 5.6 5.6 7.2 14.3 13.6 19.2 3 2.4 6.1 4.1 4 8.8 3 1 8.6 3.6 11 6.5 4.2-.5 8.4 0 12.8 0 4 1.5 5.5 10.8 2 13.9 6 2.6 15.1 0 21.2 3 3 1.5 4.4 5 5.7 8.5 3.2 1 5.4 2.6 7.7 5.2.8.9 2 1.7 2.2 2.2 1.9 3.2 1 7.5 0 10.8.3 2.6 1.5 4.1 2.6 6-1 2.8-3.1 4.6-4.8 6.7 2.8 7.4 11.9 8.7 17.2 13.6 10.7 10.4 11.6 29 17.3 44.5q1.8 1.4 3 3.4c5.7 1.2 7.9 6 15 5.7 1 1.3 3.3 1.4 4.6 2.3 3.2 2.7 6 5.7 6.6 11-1.5 1.7-4.3 1.2-6.6 1.8-2.4.7-7.2 2.4-11.3.8-2.6-1-4.8-4.2-7.6-6-4.7-3-10.9-5.1-13-9-.9-1.5-1-3.6-1.4-5.4-1-4-1.8-8.4-4.6-11.9-4.1-5-9.4-7-12.5-12.4-7-4-9.7-12.6-14.4-19-7-2.7-11-8.4-18.6-10.5-1 3.7-2.9 6.6-4.8 9.4.3 1.3 1.6 1.8 1.9 3-2.5 4-3 7.4-5.4 11.4-3-.8-6 .3-8.2-.3-3.7-1-6.6-8-9.4-10.1-5.7-1-8.7-4.6-10.7-9-.7-.6-1.4.6-2.9.2-1.6-2.8-4-4.7-4.8-8.3-2.6 2.5-7.1 1-10-.2-1.2-1.5-2-3.5-3.6-4.8-1 0-1.3.8-2.5.6.2 1.6 0 2.1.2 3.4-.7 2.7-3.9 2.5-4.8 5.1-.4 1 .2 2.8.2 4.3.2 4 0 8.9-.2 12.1q-2.7 2.6-6.5 4.2c-1.9-.4-3.5-1.1-5.7-1.1-2.1-2.3-1.9-7.7-6.6-5.7 0 6-5.2 11-10.5 6.7a37 37 0 0 0 2.3 22c1.8 4.3 2.6 7.7 5.7 10.8 3.2 3.2 9.6 3.8 5.7 9.4-7.9 3-19.5.1-28.9-.2-6.2-.4-12 1.1-17.3-1.4-5.5-2.7-2-7.4 3.5-8.2 6.8-1 12.9.5 17.2-2.3 1-1 1.5-3.1 2.9-2.9-4-13.8-14-23.6-17.9-37.4-2.4-1.9-5.3-4.5-9.6-3-2.6-2.4-5.6-4.5-6.7-7.4-1.3-3-1.8-9.7 0-13 .5-1 2-1.5 2.9-2.5 3-3.4 3.2-7.3 7.6-7.7-1.6-2-6.4 0-9.6 0-1.4-.2-1.8-1.5-4-1.1-.8 2.8 2.9 3 1.7 6.5-1.5 1.8-4.4 1-5.4-.8 1-3.7-.4-6-1.3-9.4q-2.3-1.7-6.5-1.3c-.5-1-.6-2.1-1.2-2.9-27.1-7.9-53.4-19.4-80.2-28q-6.7-2.2-13.6-4.6c-5.1-1.8-11-2.6-15.3-5.4q-4.6-1-8.8-2.8c-2.5-1-5.5-2.2-7.1-4.2 5.5-1.2 10.9 1.6 15.9 3 5.1 1.5 10 3.6 15 5.2l91.5 29c1.6-.8-.8-3 .6-3.5 2.1.4 3 2.4 5.1 3-.6-4.5-3-7.1-3.7-11.8 1.3-1.3 4.3-.8 5.4.2 1.2 3.7 1.2 8.5 2.5 11.9 3.3 1.4 8 0 11.7 0 4.3-11.9 8-22.9 15.9-31.1.7-.5-.7-2 .2-2.5q1.6-1.6 3.1-3.4c-3-11.4 5.4-17.7 11.1-23q.2-1.7.6-3.5c4.7-2.2 6.3-7.5 10.2-10.5.2-1.1-.6-2.5 0-4s2.6-1.6 4.5-2.8 2.8-3.5 3.7-4.3l3.7-2.2c1.6-1 3-2.3 5.3-2.6 3.1-.3 5.4 1.9 8.5 1.8 2 2.1 5 3 6.7 5.7 3.1 4.7 2.2 11 2.3 17.2zm-15.5-19.3c-.6-.8-2.2-2.2-3.1-1.7.8.6 2.8 1.3 2.3 2.3-1.6-1.2-2.9-2.6-4.6-3.1.6 1.7 3.2 1.4 3.4 3.4-1.6-.8-2.6-2.3-4.6-2.8.3 1.5 3.6 1.6 2.9 3-1-1-2.5-1.4-3.4-2.5-.8.4-1.6.5-1.8 1.4q2.5.5 3.7 2.3c-2-.3-3-1.7-4.8-2.3.6 1.5 4 1.7 3.7 3.1q-2.1-1.3-4.6-2.3c-.1 1-1.7.6-1.4 2 .4.4 1.4 1.3 1.7.2-.4-.2-1.5 0-1.3-.8 1.2-.4 1.1.8 2.2.6 0-.5-.4-.7 0-.8 1 .5 3.1 1.3 2.6 2.5q-1-.7-1.8-1.4c-1.6 1-2.4 1.1-4.5.6-.3 1.1 1.8 0 1.3 1.3-2.8-1-5.2.6-6.7 1.8-.2 1.7 0 2.8 2 2.5.2-1-1.4-.1-.9-1.4 1.5 0 1.5 1.5 2.9 1.7.1-1-1-2.3.6-2.3-.3 1 .4 1.2.2 2a3 3 0 0 1-1.1 1.1c-1.4-.6-4-.4-3.5.8 0-.3.8-1 .8-.2 0 1.2-2.8 2.2-1.1 3.4 0-.7 1-1.8 1.4-1.1-.3.8-1.4.7-1.2 2 .6.8 1-1.2 1.4-.3.2.7-1.2 1.2-.2 1.7.4-.6.3-1.7 1.3-1.7 0 1.4-1.7 2-1.1 2.8 1 0 .7-1.3 2-1.1 0 1-1.3.7-1.2 1.7 1.4 0 1.6-.9 2.5-1.1 1 .2 1 1.6 1.7 2 .1-2.4-2.5-3.4-2.5-4.7 1.3.3 2 2.3 2.9 2-1-1.4-2.6-2.3-3.1-4 .3-.4 1.7-.5 1.7.2q-1-.2-.8.6c.7.4 2.5-.5 2.5 1.1q-1-.2-1.4-.5c1 1.6 2.8 3.4 1.4 5.7 3.3 1 .8 6.3-2.3 3.6.5-.4 1.2.3 1.4-.8a15 15 0 0 1-8.2-7c.6-.4 1.3.6 1.3 0q-1-1.2-2.3-2.3c0 1.2.6 2.2.3 3.6q.8 0 1.3.6-.1 1.2-1.3 1.4-1-.3-.8-1.2c.9-.2.5.8 1.3.6 0-1.5-2.1-.6-3.4-.8-.4.7.5 2-1.1 2-.5-.6.5-1.7.8-2.4-1.2 0-1 1.4-1.4 2.3a15 15 0 0 1 3.7 2.9c-2.1.8-2.6-2.3-4.6-2.5-.5.4-1.2.4-1.4 1.1 3-1.1 3.8 2.2 6 2.9-1.9.2-2.6-.7-3.7-1.2-.2 1 1.1.4.8 1.4-.7.1-.6-.6-1.4-.2 0 1.7 1.6.2 2 1.7-.7.3-1.3-1-1.2.2.8 0 2.2 1.3 2.5 0-1.7 0-.6-.9-1.7-1.7 1.3 0 2.9-.2 3.1.8-1 .3-1.7-.8-2 .2 1.7.6 1.9 0 3.2-.5 0 .9-.8.8-.8 1.3.6.4 1-1.2 1.3-.2 0 .8-1.1.2-.8 1.1 1.4.5 1.7-1.6 2.5-.8-.5.8-1.2 1.6-2.8 1.4-.2-.3-.5-2-1.2-1.1.2.9-2.7 0-4 .8 1.8-.4 1.4 1.2 2.6 1.3.6-.3-.6-1 .2-1.3 2 .4 2.5 2.4 4.8 2.5.1-1.3.2-1.5.8-1.7.1.7-.6.5-.2 1.3q.6 0 .8.6c1.6-.2 2.8-2.4 3.6-2.5 0 1.5-2.5 1.8-2 2.9 0-1 1.8-.2 2-.8 0-1 .6-1.9.8-3.5.4.3 0 1.2.6 1.2.7-.1.2-1.5 1.4-1.2 0 .7-1 1.6-.3 2 1.3-.6.5-2.3.8-3.1 2 2-.5 3.4-1.7 4.8 2-.6 3.1-2.9 3.1-4.6 1.6.7-.2 2.5-.2 3.4 2.4-.2 1.1-3.3 1.3-4.5.8.3.4 2 1.4 2 .6-.7-1.5-2.4-.6-3.2.9 1 .9 2.7 2 3.1-.1-1.2-1.7-2.6-1.1-3.6.6 1.1 2 2.6 1.3 4.2.7-.4 1 1.1 1.2.2-.4 0-1-.8-.3-.8 1.5 1.5 3.2-.6 2.3-2.5.7 0 .5 1.1 1.2 1.1 1.6-.9-1.5-2.4.2-3.4 0 .7 1.1.5 1.1 1.2 0 .5-.8.5-.2 1.1.4.3 2.3.6 2.5 0q-1.2 0-2-.6c1.3-.9 2-.3 3 .6 2.1-.5 2.2-2.9 4-3.7 0-4-3-3.3-6-3-2.2-1.5-.2-4.5.2-6-.4 2.2 1.9 1.6 2.5 2.5-1.1 1-2.1-.9-2.8.3-.4 1.1 1.2 1.8 1.7 1.1q-1-.1-1.1-1.1l1.9.8c0 .8-.8.6-.8 1.3q1.3 0 2-.2c.2-1-.9-.6-.6-1.4 1.1.3 1-.9 2.3-.5.4.5 1.4.5 1.3 1.7-.5-.5-2.3-2-2.5-.3q1.3-.5 2 .6c-.5.5-1-.2-2 0 2.9 2.2 5.7 3.7 2 6.8.9-.3 1.1-1.2 2.2-1.2.3-1.7.4-2.6-.2-4 1.7.6 1 2.4 1.4 3.7 1.4-1.9-.2-4-1.4-5.2 1.4-.3.6-1.6.2-2.5 1.2.4 1.6 2 1.2 3.1q.6 1 1.4 1.7c0-.6.5-.7.5-1.4-1 .3-1.2-.4-1.1-1.3.5.2 1 .9 1.1 0-.2-.7-1.5-2.3-1.3-3.1.9.2.9 1.4 1.7 1.7 1-2.7-2-3.4-3.7-4.6 1-.4 2.3.7 3.5.8 1-2.8-1-4.9-3-5.7 0-.6 1.1-.1 1.5-.2 0-1.8-1.6-.7-2.3-1.7.3 0 .5-.5 1.1-.3 0-1.7-3.3-1.1-4.2-.5 1.4 2-.5 5.5-2.3 5.1 0-.7 1.1-.4 1.1-1.1-1.3-.6-2.7.5-3.4-.6 1.7-1.1 3.2 1 4.2-.8-.4 0-1.3.8-1.7 0 .4-.5 1.3-.5 1.7-.8 0-1-.3-1.4-.5-2 .8-1 3-.5 3.4-1.3-1-1.7-3.4 1-4-.2.5-.6 1.7-.4 2-1.2-1.8-1.2-3.4 1-4.6.6.3-1 1.6-1.3 2.5-1.7-1.6-1-4.1.4-4.6.5-.2-1.1 1.2-.6 1.2-1.7-2.6-.3-1.8 3.1-.8 4-1.3-.2-2-1.8-2-.2zm-.6-1.6c-.6-1.4.6-1.8 0-2.8-.5.9-1.4 2.5 0 2.8m-2-2c0 .6 0 1.4.7 1.3 0-1-.3-1.3.3-2-1-.3-.7.5-1.2.7zm3 2c-.6-1.4 1.2-1.8.2-2.5-.6.2-1.3 2.2-.2 2.5M187 165.4c.3-.8.7.4 1.4 0 .5-2-2.3-.6-1.4 0m12.2 6.6c1.2-2-1.6-4.3-3.7-3.7.3-.7 1.4-.7 1.7-1.4-1.1-.4-2.6 1.4-4 .8 2 1.4 5.6 1.3 6 4.3m17.5 0c.4.4 1.7.3 1.9-.3q-1 0-.8-.8c1-.8 4-3 2-4.2-.6.6 0 1 .2 1.4-1.6.9-2 2.8-3.5 4zm14 .8c.7 2.6 4 4 4.5 6.1-4.6-2.6-5.2-9.1-11.1-10.5-1 .6-1 2-2.9 1.7 2.6 2.7 6.1 5 5.4 10 3.2-1 7.1-1.6 10 0-1.5-3-4-5-6-7.3m-47.6-1.6q-1.2-.2-2-.3 0 .9.7 1.2c0-.3 1-1 1.1-.3-.7.5-3.2 2.6-1.1 2.3-1-1.5 1.8 0 2.2-.8-.8-.7.5-1.7-.2-2.5.5-.1 1.5.4 1.4-.2-1.3-.6-2.2.1-3.4-.6-.3 1.2 1.7.2 1.3 1.4zm37 0q-2 2-4 4 1.1-.1 1.5.5c0 2.9-2.1 5-2.3 6.8 0-.3.8-1.3.8-.6-2.7 2-3 6.2-4.8 8.8.2-2.5 1.2-4.2 2.3-6-1.4.6-3.4 4.6-4.6 2.6 4-1.6 7.5-6.5 7-10.8q.7-.1.9-.5c-.6-.6-.8.3-1.7.2 0-.5.4-.5.5-.8h-1.7c-.2 1 .4 1.4.2 2.3-.6.7-1.4 1.1-1.9 0 0 2.3-2 2.6-3.7 3v1.8c-1.9-.3-1.6 2-3.6 1.7-2 3.2-1.7 10 .8 13.6.7-.5 2.3 0 2.3-1.1-.6-.2-2 .4-1.7-.6 3 .3 3-2.5 5.1-3.1-.6 1.6-2.3 2-2.9 3.7 1.6.4 2.6-2 3.5-3.1.2.4.2 1.1 1.1.8 4.5-2.8 4.6-11.4 9.4-12.7-2.5 2.7-5.5 6.4-5.7 10.5 1.6-5.3 4.3-9.3 9.6-10.8-1-4.5-2-9-6.5-10.1zm-4.7 3c0-.8-1.8-.6-1.2-1.3-3.6.9-4.4 6.8-8.4 5.7.7.8-1.2 3 .8 4.6 1.1-.7-.4-1.2.2-1.8.6 0 .4.8 1.2.6.9-.7-.7-2 .5-2.3q.4.7 1.4.6c.3-1-.7-.8-.6-1.7 1 0 1.2.4 2.3.2.8-1.6-1.1-1.8 0-2.5 1 .2 1.5 1.7 2.3 1.1-.6-1.1.1-2-.6-2.8 1.6.4 3.6 0 3.7-1.7-.6-.1-2-.7-2.5 0 .7-.1 1.6 1 .8 1.3zm-8.5 3.1q0-.4.3-.8c-1-.2-.6.8-1.4.6 0-.3.4-.7 0-.8-1 1.5-2.9 2-4.3 3 1 0 1.4.3 2 .3.7-1.1 2.5-2.8 4-1.4 1.1-1.7 3.4-2.2 3.7-4.8-1.8 1-2.6 3-4.3 4zm-25.3-2c1.3.4 2.6.2 3-1l-2.4-.6c.4 1-.7.8-.6 1.7m-1.3.8c.8-.2.7.3 1.3.2q-.3-1.3-1.3-1.7zm20.1 2.3a8 8 0 0 0 5.4-3.1c-1.8.2-3.3 2.3-5.4 3m-22.4-1c0-.8 1.8-1 .8-1.8 0 .7-1.7 1.2-.8 1.7m7 0q-1-.7-2.4-1.1c0 1.1 2 1.5 2.5 1.1m12.4.8c1 .1 2.2-1.8.8-2 .4 1.3-.9 1-.8 2m-21.8 1q1.2-.2 1.4-1.4c-.7-.8-2.2.7-1.4 1.3m2.6-1.4c0 .8 1.4 1.3 2 .8 0-1.2-1.2-1.3-2-.8m6 .5c-1-.2-1.4-.8-2.5-.8.2.8 2.1 2 2.5.8m-7.1.6c.2 1 2 1.5 2.3.2-1 .3-1.4-1.1-2.3-.2m3.4.3c1 0 1.6.7 2.5.8.3-1.2-2.3-1.8-2.5-.8m4-.3c-1.2 2-3.8 4-4.1 6 1.4-1.5 4-4.9 4-6m8.2 1h.8c.3-1-.4-1-.8-1.2zm2.9-.7c.3 3.7 7.2 6 7.9 2-2-.5-1.7 1.5-3.4 1.4q-2.4-.8-2.9-3.5c-1 .3-1.1-.5-1.7 0zm2.5 0c-.6 1.2 1 2.3 2 2.9 1.1-.3 1.6-1.3 2.5-1.7-1.6-.2-2.9-2-4.6-1.2zm-9.6 1.2c0-1-1-.6-1.4-.8 0 .9.6.9 1.4.8m-12.8-.4c-.2 1.5 1.6 1 2 1.8-.3-1 .7-.6.5-1.4-1.2 0-1.5-1-2.5-.2zm4 0c.2.8 2.9 1.9 2.9.3-1.3.2-2-1-2.9-.3m24.1.4q.8 1 .6 2.8c-2.6-.6.2 2.6-2.3 2.3-.2-.9.8-.5.6-1.3-.5-.5-1 .2-2 0 .3 1-.4 1.4 0 2 .8.2 1.8-.3 3.1 0 .8-.7.3-2.6 2-2.4-.7-.9-.1-3-1.2-3.6q-.1.4-.8.2m31.1.6c6.5 2 7.8 18.5 2.9 22.4 4.5-.3 3.8-8 3.4-12.5-.3-4.1-2.7-6.7-3.6-9-2-1.9-7.7-2.4-10-.3 3.1 0 5.2-1.2 7.3-.5zm-60.8 0c.5 1.3-1.7 3.5-.6 4.5.6-1.5 1.4-4 1.4-5.1q-.1.5-.8.6m4.5.8c1.1 0 1.9 1.2 2.8.5-.2-1.1-2.5-2-2.8-.5m-3.4 0c.2.8 1.6 1.1 2 .8 0-1-1.4-1.4-2-.8m8.5.3c1 0 1.4.7 1.4-.6q-1.2-.2-1.4.6m45.3 0c.7 1 2.6 2.3 1.7 4-.6-5.6-8.7-3.2-9 .2 1.2-.4 4-.8 5.1.3-1 0-2.7-.5-2.5.8 0 .8 2-.3 2 .5-.5.6-1.9 0-2.3.6-.1 1.2 2 0 1.7 1.4-1.2.3-2-.8-2.3.2.6.6 1.6.7 2 1.4-1 .3-2-1-2 .2.2.7 1.6.2 2 .8-.4 1.4-2.1-.4-2.6.2-.2 1.3 2.2 0 2 1.2-.6.6-1.2-.2-2.3 0 .2 1.4 3 .2 2.8 2-.8-.3-2.5-1.4-2.8-.3.4.6 2.3-.2 2 1.1-.8 0-.9-.4-1.8-.2-.2 1.5 2.2.5 2.3 1.7q-1.4.1-2.3-.2c.1 1 1.5.8 2.5.8 1.2-3.8 1.2-9 2.5-12.5-.3 5.4.3 10.9-1.3 15.4 3.4.5 6 2.5 10 1.7.1-1-1.5-.4-1.5-1.2.6-.5.8.1 1.8 0 5.8-6.6 3.5-24.9-7.7-20.3zm-57.2 2.2c1 0 2.2-2.4 1.2-2.5-.3.9-1 1.6-1.2 2.5m5.6-1.6c.4 1 1.8.8 2.5 1.3 0-.5.8-.3.6-1-1.5 0-2-1-3-.3m5.3.5c1 0 1.5 1.3 2.3.6 0-1-2-1.6-2.3-.6m-8.1 1.4q1.4-.1 1.7-1.4c-.5.2-1.5-.3-1.4.3 1 .2-.3.8-.2 1.1zm15.2-.6h.8l.2-.8h-1.1v.8zm-13.6.6c1.5 0 2.3 1.4 3.4.8 0-1.6-1.6-1.6-3-1.7q0 .5-.3.8zm5.7-.6c0 1.3 2 1.5 2.3.3-1 0-1.6-1-2.3-.3m5.1.8c1 .3 1-.4 1.2-.8-.4 0-.6-.4-1.2-.2v1.2zm-2.8 1.5c.8.3 1.1-1.3.5-1.7-.2.6-1.3 1-.5 1.7m5.6-.5h.8c0-.5.2-1.4-.6-1.2 0 .4-.4.6-.2 1.2m-19.8 3.9c1.4.2 2.7 1 4.8.2-.5-1.2-.8-2.4-2.5-2.3-.5 1.6 1.5.6 1.1 2-1.5-.9-1.8-1-3-.9-.4-1.3 1.7-.3 1.7-1.3-.7-1-1.3.9-1.8 0 .3-1.4 1-.5 2-.8-.1-.7.6-.6.2-1.4-2.4-1-3.3 2.3-2.5 4.6zm5.1-3.4c1.2.3 3.4 1.5 3.7 0-1-.5-3.2-2-3.7 0m7.6 0c0-1-1-1.1-2-1.1 0 1 1.4 1.6 2 1.1m3.8.6V185h-.8q0 1.4.8 1.7m9.6-1.1c.3 0 .5.4 1.1.2v-.8q-1-.2-1.1.6m2.7.8c.1-1-.7-.8-1.1-1.2q-.2 1.4 1.1 1.2m-11.3.3c0-.3.5-.6.2-1.1h-.8q-.2 1 .6 1.1m-14.6-.6c0 1 .4.7 1.1.6 0-1-.5-.7-1.1-.6m6.1 1.2c.7.2 1.2.8 2 .8 0-.7 1-.6.8-1.4-1 .1-1.4-.6-2-.8 0 .7-1 .6-.8 1.4m10-.4c0-.3.4-.5.2-1.1h-.8q-.2 1 .6 1.1m6.2.4c.6-.4 0-2-.6-1.2.8.3-.6 1 .6 1.2m4.8 0c.5-.6 0-1.4-.6-1.4-.6.6 0 1.3.6 1.4m-15.8 0q0-1.4-1.2-1.2 0 1.4 1.2 1.2m12.7.5c0-.8 0-1.6-.8-1.3 0 .8 0 1.6.8 1.3m4-.5c.3.4 1 .7 1.3.2q.1-1-.5-1.1c0 .6-1.3-.2-.8.8zm19 .2c1.3-.7 3.4 1 3.6-1.1-1.5 0-3.3 0-3.6 1.1M174 187c.5 1 3.7 2.2 3.7.3-1.6.3-2.4-1.3-3.7-.3m24.2 1.2q0-.6.2-.8c-.4 0-.6-.5-1.2-.3 0 .7 0 1.3.8 1.2zm-16.9.5q1.1 0 1.8-.2-.2-1-.8-1.1c0 .7-1 .5-.8 1.3zm2.1.4c1-.1 1.3 1.3 2 .6.3-1.5-.9-1.5-1.4-2-.1.6-.6.7-.6 1.4m-5.4-1c0 1.1 1.6 1.7 2.3 1.2.2-1.2-1.7-1.5-2.3-1.1m44.8.9v-.6q0-.4-.3-.6c-.3.8-1.5 0-2 0-.3 1.5 1.8.6 2.4 1.2zm-20.8.8q.4-2-1.7-1.7c-.3 1.4 1.3 1 1.7 1.7m-25.5-1.2c-.9.4-1.6-.8-1.9 0 .5.6 2 2.1 2 0m9.9 1.4q1.5.1 1.7-1.1c-.8 0-1.1-.6-2-.6-.4.5 0 1.2.3 1.7m6.2-.5c0-.9.4-.6 0-1.2-1.2-.2-1.2 1.4 0 1.2m5.1.3c0-.5.5-.5.6-.8-.4 0-.6-.5-1.2-.2q-.2 1 .6 1.1zm-17.3 0c.7.2 1.9.7 1.8-.6-.8.3-.7-.3-1.4-.2l-.2.8zm19.3.6q.1-1.4-.8-1.4c-.6.6-.4 1.7.8 1.4m-23-.4c.9.1 2.7 1.9 3 0-1.2 0-1.4-.9-2.6-.8q0 .6-.2.8zm26.4 4.4c-5-2.2-9-3.6-14.4-5.2 4.3 2 10 4 14.4 5.2m-8.2-4q0-.8.2-1.2c-1.3-.3-1.4 1.2-.2 1.2m23.5-.4q1 .1 1.2-.5c-.4 0-.6-.5-1.2-.3zm1.7 0c1.3-.3 2.3 1 2.3-.5-1.1.3-2.2-1-2.3.5m28 9.7c-1.8.7.4 2.4-1.9 2.9-1.6-.3-3.4-3.2-5.1-1.7 3.7.2 5.7 3.8 4.5 6.5.8-1 1.6-2.5.8-4.2.6-.3 1 .8 1.2 0 .3-1.7 2.8-4.5 1.4-7.3-3.1-1.5-5.6-5-8-6.2.3 5.6 6.2 5.4 7.2 10.2zm-65.7-10c0 1 1.2.7 2 .9 0-1-1.4-1.4-2-.8m17.8.2c-.2.8 1.4 1.2 1.7.6-.5-.2-1-1.1-1.7-.6m-15.5 1.2s1.4.7 1.4 0c-.5 0-.3-.7-.3-1.2q-1 0-1.1 1.2m6.8 0q-1.5-.7-3.4-1.2c.4 1 3.1 2 3.4 1.2m4-.6c.3 0 .5.5 1 .2v-.8q-1-.1-1 .6m2.6 1c.6-.8-.3-1.2-.8-1.5 0 .8 0 1.6.8 1.4m-28.2 2.3c-.2-.7-.4-2.3.6-2.5.1.6-.3 1.8.2 2 .5-.6 1.2-1.2.8-2.6-2.3-1.4-3.4 2.3-1.7 3.1zm6.3-1c-.9-.6-2-.8-2.5-1.9 1 0 2 .8 2-.5q-2-.1-3.1.5c.4 0 .2.7.2 1.2 1.2 0 2.6 1.2 3.4.8m-.6-.8c.7-.4 1 1.2 1.4.2-.8-.2.1-1 0-1.4q-.5 0-.8-.2c-.1.6-.6.7-.6 1.4m4.8 0a3 3 0 0 0 1.2-1.2c-.2-.2-1.6-.6-1.7 0 .2.4 1 0 .8.8-.6 0-.6 1.2-.3.3zm41.7-.6c0-1.1-1.5-.8-2.5-.8 0 1.2 2 1.3 2.5.8m-40.3.2c.5.5 2 .5 1.7-.5-1-.1-1.2-.4-1.7.5m-4.2 1.5c1 0 2 0 2-1.1-.4-.6-1.6-.5-2-.8-.5.3-.5 1.6 0 2m9.4-1c1.7-.2 3.2 1.8 4 0l-3.5-1.1c.3.8-.5.5-.5 1.1m12.7-.2q.1-1.3-1.2-.8 0 1 1.2.8m.9.8c1 .2 1.1-.6 1.3-1.2-.9.3-.8-.4-1.7-.2q0 1 .3 1.4zm-14.4-.6-2.3-.6c0 1.3 2 1.9 2.3.6m9 1c.1-1.4-2.3-1.7-3-1.2q1.4.6 3 1.1m26.5-.3c0-1-2-.5-2.5-1.2-.1 1.4 1.8.6 2.5 1.2m-44.7 2c-.6-2-3.3-1.7-4.8-2.6 1 1.5 3.2 1.6 4.8 2.5m3.2-1.3c.7-.3 2.4.5 2.3-.6 0-.4-.5-.2-.6-.6-1-.1-1.2.6-1.7 1.2m11 .3c1 0 3 1.7 3 0-1-.3-2.9-2-3 0m-8.2.2 1.7.8q.2-.6.6-1.1-.8-.7-2-.8c0 .6-.3.6-.2 1.1zm3.2-.2c.9.5 2 .6 2.8 1.1q.2-.4.6-.5c0-1.4-2-1-3-1.4q0 .5-.3.8zm16.9 1.4c-2.9-.4-4.6-1.9-7.3-2.3 1.6 1.2 5.7 2.8 7.3 2.3m10.2 1.3c-1.7 0-4 1.8-4.3 4 1.9-.6 2.4-2.5 4-3.4.2 1-1.6 1.7-.2 2.3q-.2-1.6 1.2-1.7c0 .7-1.3 1.4-.3 2 .5-.4.5-1.1.8-1.4.6 0 .3 1.1 1.2.8v-.6q.3 0 .2-.2-1 .2-.8-.6c1.5.2.6-1.7.6-2-.6.3.2 1.8-.8 1.4-.7-2 1.8-2.2 1.1-3-.7 1.2-.4-.4 0-.9-2 0-1 3-1.7 4.3-1-.4 0-2.1-.6-2.6-.5 1-1-.4-1.7-.2q-1.2 2-3.4 3.1.4.2.2.8c1.8-.6 2.3-2.6 4-3.4 0 .7.5.9.6 1.3zm5.7-2.7c1.2-.2 1.6.5 2.5.6.2-1-2.4-1.7-2.5-.6m28.2 6.2c.3-3.5-4.2-4.5-6-6.8-1 4 4.3 4 6 6.8m-69.6-6.2c0 1.1.7 1.4 1.1 2q1.4-.7 2.5-1.8c-1.9-.3-2.1-.2-3.6-.2m48 7c1-1.5 1.3-5.3.7-7.3zm-30.6-6c1.1 0 1.6 1 2.8.8l.2-.8-2.8-1.1c0 .6-.4.6-.2 1.1m-23.3.6c-.3.2 0 1-.8.8 0 1.4 1.8 1.4 2.9 1.7.2-.8-.3-.7-.2-1.4-.6.3-1.7 1.2-2 0 .7 0 .4-.8.8-.8h1.4c-.2-.8.6-.5.6-1.1-1.4-1.1-2.5.5-4.3-.6 0 1 1.8.4 1.8 1.4zm46.5-1q-.8 0-1.2-.3c-.3 1.2 1.4 1.5 1.2.3m-29.4 1q-1.3-.8-3.1-1.1c-1 1.2 2.9 2.7 3 1m2-.7c0 1.5 1.6 1.4 2.9 1.7 0-.6.3-.6.2-1.1-1.4.2-2.2-1.3-3-.6m28 .6c1-.3 1.3.3 2.2.2.3-1.1-2.4-1.7-2.3-.2m-34.5 1.7c.8-1-.1-2.2-1.4-2-.4.7 0 2.4 1.4 2m-5.4-.4c-.4-.4-2.4-2-2.5-.2 1.3 0 1.8.8 3.4.6.5-1.3 1.5-.7 2.6-1.2-1.5-1.3-2.2.5-3.5.8m19.8-.5q1.1.6 2.5.8v-1.2c-1.1-.2-2-.9-2.5.3zm-4.2.5q1.4.6 2.8 1.2 0-.8.3-1.2-1.2-.8-2.9-1.1c0 .3-.4.6-.2 1.1m43.1 5.4c1.3-1.5 2.7-4.2 2.3-6.5-.1 2.6-2.2 4.8-2.3 6.5m-186.7 8.6c-14.2-4.6-29-9-43-13.8.3-.3.7-1-.2-.8-.9 1.2 1.2 1.6 2 1.9a92 92 0 0 0 14.1 4.6c0 1.8 4.6 0 6 2.3-1.6 0-3.1-1.6-4.6-.8 3.3.6 6.8 2.6 10 2.5-1.3-.4-2.9-.4-3.5-1.4 6.6 1.6 13 4.8 19.2 5.7zM185.2 197c1.3 0 2.4 1.2 2.9-.2-.8-.5-2-.6-2.5-1.2q-.4.6-.3 1.4zm35.4-.6c0-.9-1.3-.4-1.8-.8 0 1 1 .7 1.8.8m-90.4 39c-1.5-2.5-4.5-2.5-6.7-3.2-18-5.8-35-11.4-52.4-16.7-15.1-4.5-30.2-10-45-14.4-6-1.7-12.3-4.2-17.7-4.8 41 12.6 80.3 26.9 121.8 39.1zm44.3-36.9c.4-.1 1.7.3 1.7-.2q-1.8-.5-1.2-2.3h-.8q.4 1 .3 2.5m15.8-2.3c0 1 2.6 2 2.8.6-1 0-2-1.3-2.8-.6m13.3 25c.6 1.9.8 4.7 2.9 5.3 0-2.4-1.5-4.6-2.3-7-2.2-7-3-14.8-1.4-23q0-.5-.2-.6c-1.8 9-1.1 17.1 1.2 25.1zm-28.1-24.4c1 1.2 3.9 2.4 4.8.6-1.8 1-3.4-1.2-4.8-.6m6.5.8c0-.5.5-.5.6-.8-1 .2-1-.4-1.7-.2-.3.9.4 1 1.1 1.1zm6 .3c1.1.5 1.8-.9 1.1-1.3-.2.6-.9.8-1.1 1.3m10.3-.3c1.2 0 2 1.1 2.5-.2l-2.5-.8zm-22.5 6.3a18 18 0 0 0-5.9-7.1q2.4 4 6 7m44.7-6.4q-1-.4-2-.6c-.1 1 2 1.4 2 .6m-13.3 27.4c-2.5-7.1-5.4-17.8-3.4-27.4q0-.4-.6-.3a44 44 0 0 0 4 27.8zm-25-26.6q.6.4 1.8.2.1-1.4-1.4-1.2l-.2.8zm7.4.3c1.2 0 2.3 1.5 2.8 0q-1.3-.6-2.5-1.1c0 .3-.4.5-.2 1.1zm7 .2c-.2-1.1-1.4-1.1-2.4-1.3-.2 1.4 1.6 1 2.5 1.3m-21 6.5c-1.6-2-4.2-5.4-6.7-7.6.8 2.7 4 6.8 6.7 7.6m9-6.5c.5.5 2 .5 2.4 0-.1-1-1.4-.9-2.3-1.1zm21-.5c-.1.9.5 1.1.6 1.7q1.5 0 2.3-1.2c-.8 0 .2-1.6-.8-1.1q-.8.6-2 .6zm36 .9c2 .3 3.4 1.6 4.8 2.5 0-2.9-2-3.8-4.8-4zm-61.4.5c-.1 2 3.7 1 2.3-.5-1-.3-.3 1.1-1.4.8-.2-.8.4-.7.3-1.4-.4 0-.4-.3-.8-.2 0 .4.9 1.5-.3 1.3zm17-1.1c0 1 2.5 2 2.5.6-.4-.6-2.2-.8-2.6-.6m22.7.6c.1-1-.6-1-1.4-.8-.1.9.6.9 1.4.8m-43.6.8c.4-1.5 2.3-.3 3.1.2-.2 1-.8.3-1.4.2q0 .6-.2.8c.8.8 1.1-.2 2-.2-.3-1 .4-1.5 0-2-1.7.3-2.1-.5-3.5-.5-.1.2-.7 1.4 0 1.4zm11-1.2.2.8q1-.1 1.2-.8c-.7 0-1-.5-1.4 0m16.5 8.3c.2-.8.5-5.9 1.1-8.3-1.4 2-1.4 6.3-1.1 8.3m-28.9 1.1c-3.2-2.6-5.7-6-8.4-9 1.5 4.3 5 6.6 8.4 9m0-1.1a50 50 0 0 0-6.7-8c1.3 3.7 4 5.8 6.7 8m.8-6.8c-.5 0-.2-.9-.5-1.1-.5 0-1.7-.4-1.7.2.3.6 1.4 1.7 2.2.8zm13 0 2.6.8q.3-.5.6-1.1c-1-.1-1.5-.8-2.5-.8q-.4.5-.6 1.1m7.6-.9c-1.1 0-1.6-.5-2.8-.2 0 1.5 2.8 2 2.8.2m20.4 0c0 .8.6.7 1.1.8v-1.1q-.7 0-1.1.2zm5.6.3c1 0 1.4.7 2.5.6.1-1.1-2.6-1.2-2.5-.6m-12.7 2c1.3-.2 1.6-1.4 2.3-2.3q-1.7.5-2.3 2.3m2.5-1.7c-.4 1.2-1.8 1.7-2.3 3 1.6.4 1.6-2.3 2.9-1.3-.6 1.1-2 1.5-2.3 2.8 1.5 0 4.8-3.6 4-5.1 0 1-1.7 1-2.3.6m-26.3.8c0-.6.4-.6.3-1.2-.7 0-1.2.6-1.8 0q-.1 1.4 1.4 1.2zm28.4 2c1.1-.5 2.4-2 1.4-3 0 1.4-1.5 1.4-1.4 3m-37.2-1.7q.3-.5.6-1.1c-1.2-.4-1.5 1-.6 1.1m8.8 2.3c1.7 0 .3-1.8 1.7-2 0-.6 0-1.4-.8-1.3-.4 1.5-.2 2.5-.8 3.4zm10.8-2.6c.7.2 2.5 1.6 2.5 0q-1-.7-2.3-.8zm10-.3q-.1 1.1.5 1.8c.2-.7 1.1-.7 1.7-1.2-.1-.6 0-1.2-.8-1.1q-.3.6-1.4.5zm-7 18.7c0-6-.4-14.3.6-18.7q0-.3-.5-.2c-1 4.6-1 13.6 0 19zm4.9-5.4c.2 2 .7 4.8 2 5.4-.7-4.3-3-12-.9-17.9-.4 0-.1-.8-.6-.8-.5 4-1.2 8.7-.5 13.3m17.6-13q-.1.6.6.5c.4.6 2.6.4 2.5-.5-1.4.3-2.3-.7-3.1 0m-34.6 1.5c1.5-.4 1.9.5 3.1.5q0-.4.3-.8c-.6-.7-1.9-.5-2.6-1.1q-.2.8-.8 1.4m5.4-1q1 .7 2.3.8c0-.5.3-.5.2-1.1-.5 0-2.5-1-2.5.2zm27.2 1V201c-.8.2-.7-.3-1.3-.2-.4 1.2.9 1 1.3 1.4m-40.5 0c1 .2 1.5.3 1.8-.8-.8.2-.7-.4-1.4-.3 0 .4-.5.6-.2 1.2zm.8 1.1c-1.2-1-4-2-5.7-1.7q1.3.4 2 1.4c.3-.7 1.8 0 2.5-.3 0 .6.3.6.2 1.2-.6 0-2-1.4-2.3 0 .5-.3 3.1 1 3.1-.6zm.6.8q1.5-.5 2-2c-.6 0-.3-1-1.2-.7.1 1.3-1.2 1.1-.8 2.8zm4.6-1.7q.1-1.4-1.4-1.2c-.3 1.3.7 1.9 1.4 1.2m10.7.6c1 0 1.3.5 2 .8-.2-1 .3-1 .2-1.8-1 0-1.4-.5-2.3-.5v1.3zm11 2.6c1.2-.4 2.2-.8 2.3-2.3-1-.2-1.6 1.6-2 .2.3-.4 1.1-.5 1.4-.8q0-.8-.2-1.1c-2 .8-1.8 2.2-1.4 4zm4.6 1.6c2-.4 3.3-3.8 4.8-5.7-2.4 1.1-3 4-4.8 5.7m27.2-3.3c2.2 1.5 5 5.2 2.5 7.9-.8 0-2 .2-2-.6 2-2.2-.6-6-1.6-7.1.2 2.7 2 7.8-1.2 9.6 1.4.7 2.7.7 4 .8 1.4-1.7 3.5-3.7 3.5-6q-.7 0-.8-.2c1.3-1 .9-2 .2-3.6-.7.4-.7 1.7-1.7 2-.1-1.8.9-2.1 1.7-3-1.1-.4-1-2.2-2.5-2.2.6 2-1.3 1.6-2 2.3zm-11-.6c-1.3-1.8-4-.8-6.3-1.4 1.5 1 4.7.5 6.2 1.4m17 3c1.3-1.4-.8-4.5-2.2-4.1 1.5.8 2 2.8 2.3 4.2m3.9-4c.6-.2 2.1.4 1.9-.6-.8 0-2-.2-2 .6m-56.8 1.5q1.4.1 2.3.8c-.1-1 .5-1.2.6-1.7-1 0-1.3-.8-2.3-.8-.1.5-.7.8-.6 1.7m-16.8 11.9c-.1-1.2-1.7-.8-1.4-2.3 1 .3 2 2.3 2.5.5l-10-8.8c.7 0 .4-.8 1.2-.5 3 3.2 7.2 5.2 10 8.8-.1-3.6-3.1-4.1-5.2-5.7s-3.2-4.5-5.7-5.2c-.9 2.9-4.1 3.4-5.4 6 3.5 1.8 5.8 4.9 8.9 7-1.8-3.4-5.4-5-8-7.6 3.6 1.4 5.8 4.1 8.3 6.5 0-1 1-1.1 1.1-2-2.1-1.5-4.5-3-6-5.3q5.9 1.4 8 6.5c-1 .1-.7-1-1.7-.6q-.2 1.4-1.2 2c1.3.3 1.3 2 2.5 2.3 1-1-2-1.6-1.1-2.6a6 6 0 0 1 2.3 2c.6-1.2-1.7-1.7-2-3.1 1.3.3 1.9 1.4 2.9 2zm11.9-12.8c.3.9 2 1.3 2.9.8-.3-1.2-1.9-1.3-3-.8m31.9.3c.3-1-1.7-.7-1.7-.2q.6.4 1.7.2m6.2.8c0 1.5-2-.5-2 .8 1.7.8 3.7 0 4.3-1.1-1.9-.8-4.8-.7-7.1-1.2 1 2 3.5.2 4.8 1.4zm11.6-.6c-2.1 2.2-5.5 0-8.2-.5 1.7 1.4 6.9 3.5 8.2.5m-61.5 5.4c1 .2.3-1 1.1-.8.3-1-.8-.6-.5-1.4 1.5 0 1.2-3 .2-3.4.7 2.6-1.4 3.3-.8 5.7zm10-3.9c0-1 0-2-1.2-1.7 0 1-.2 2.2 1.2 1.7m20-.3c1 .4 1.5-1.6.3-1.4q0 1-.2 1.4m9.4.9c-.6 1.4-2.1 1.7-2 3.6 1.5-.2 1-2.6 2.5-2.8.3.7-1.1 1.2-.2 1.7.8-1.3 0 .3.6.6.7-1.6.8-4 .8-5.4q-.7.8-1.2 1.7.8 0 .6 1.2c-.6 0-.3-.8-1.1-.6m4.8 1.6c-.3-.6.6-3.8-.3-4-.4 1.2-1 3.3.3 4m27.6-2.5c3-1 7.6-.3 9.4 2.3-2.3 3.2-5.8 2.6-10.5 1.9-.3.8-1.5.8-1.1 2.3 1.4.8 4.4.3 5.7.6-.7 2.7-5 2.7-6.2.5-.6 1-.8 2.7-2.9 2.3 1.6 2.2 5.5 1.4 7.1.8-.5 3.3-5.7 3.6-6.7.6q-1.3 1.1-2.5 2.3c1.7 1.7 5.1 1.6 6.5.8-1.2 1.2-2 2.8-4.6 2.8-1.5-.2-.6-2.8-2.3-2.8q-1.3 1.3-2.3 2.8c2.2 1 5 1.6 6.6 1.7-3.2 2.6-6.5 1.2-7.4-1.7-1.2 1.6-3.3 2.3-4 4.6.7 1 1.2 2.2 2.5 2.5s1.4-1.6 2.3-.8c-1.8 2-4 4.3-6.5 6s-5.8 3-7.3 5.1q4.8-2.4 10-5.7c2.3-1.6 4.6-4.4 7.3-6.2 2.8-2 5.8-3.9 7.6-6 4.3-4.6 6.5-10.7 11.4-14.7-3.1-.5-7.7-6-12-2zm-51.4.3c.5.2.9.7 2 .6l.1-1.2c-.9 0-.9-.9-1.9-.8.2.8-.3.7-.2 1.4m-15.1 0c1 .5.9 2 2 2.3q0 1.2-.9 1.4c-.1-1 .7-1.2-.2-1.4.3 1.3-1.2 1.6-.2 2.5 1.4 0 1.7-1.5 2-2.8l-1.2-.8c-.4-1.4.9-1.3.8-2.3-1 .2-1.4.9-2.3 1.1m30.3 1.2c.8.4 2-1 2.3-2-1-.7-2 1-2.3 2m-24.3-1q1 .5 2.3.8c.4-.3.3-1 .6-1.3-1.3.2-1.6-.5-2.5-.6 0 .6-.4.6-.2 1.1zm33.7-.8c-.3 1 1.6.6 1.3 0-.9.2-.9-.5-1.3 0m-40.2 1.2c0-1.2-1.5-1-2-.8q.8.6 2 .8m13.9.2c0-1.1-2.1-1.5-2.6-1.1.6.5 1.8.7 2.6 1.1m6.1 6c.5-1.9.5-5.5 0-7.4.4 2.7-.5 5.4 0 7.4m26.5-1.2c1.2 0 1.4.8 2.5.8.2-1.5 1.8-4.9 2-6.5-1.7.2-2-.8-3.5-.6-.7 2.4.7 4.6-1.2 6.2zm-19.6-4.8c0 1 1 .8.6 2 1.3-.5 2.6-2.2 2-3.1-.7.8-1.3 1.8-2.6 1.1m15.2 2c0-.6.5-2.4 0-3.1-.3.7-1.1 2.7 0 3m18.8 3.5q.8-1 1.1-2.3c-1.1-1.3-1.4-3.3-2.9-4.2 1 2.1 2.2 4.3 1.8 6.5m8.2-6c2.3-.4 4.1 1.2 5.4.8-1.2-.9-4.7-1.8-5.4-.8m-59.5 1.2c1 .4 1.4-1.6.3-1.4 0 .7-.6.6-.3 1.4m44.2 6.2c3.9.8 4.8-5 2.5-7.7 0 3.7 1.6 7-2.5 7.7m-56-4.5c0-.6.8-2.7-.3-2.9.2 1-1.3 2.3.2 2.9m27.7-.6c.7-.2 1.6-2.3 0-2.3-.3.4-.6 2.1 0 2.3m21.3 1.7c-.2-1.2.3-3.2-.2-4-.6 1-.4 3.2.2 4m3 2.3a11 11 0 0 0 3.5.3c.7-2 2.2-3 2-5.8-1 0-3.3-.8-3.7-.5 2.3 1.5.3 5.5-1.7 6zm-60-4.3c-.8-.4-1.6-2.2-2.5-1.4.8.4 2 1.8 2.5 1.4m14.8-.2c.6 0 0-1 .2-1.4h-.8c.1.6-.3 1.7.6 1.4m6.3-.4c.5.5 2.1 1 2.8.6.4-1.6-1.7-1-2.3-1.7 0 .5-.8.3-.5 1.1m55.4.6c3.1-2.2 8 4 8.5-.6-2.2.6-7.4-3-8.5.6m-67.3 0c1 .4.5-.8 1.3-.6.3.8-.3.7-.2 1.4 1.8.1 0-1.6.8-2.3-.9.3-1.2 1-2 0 .2 1-.5 1 0 1.4zm18.4.3c.2-1.5-1-1.5-2-1.7q.4 1.6 2 1.7m25.4-1.1c.6.7 1.5-.6 1.4.8-1.5-.5-1 1-1.8 1.1h-1.1c-.2-.5-.4-1.3-1.2-1.3q-.1.4-.5.5c1.1 1.9 4.9 2.4 6.5 2.9a13 13 0 0 1-.6-4.6c-1 .1-2.6-.4-2.8.6zm-36.5.8c.6.1.7.6 1.4.6 0-.6.8-.4.5-1.2-.9.1-1.1-.4-1.7-.6q0 .8-.2 1.2m30.3.6c-.1 1 2.3 2.1 2.3.5-1.3.4-1.5-1.2-2.3-.5m2.9.3c-.8-.8-1.4-1.8-2.9-2 .5 1 2.2 2.2 2.9 2m11 2.3c.7-.7 2.2-3.2.7-4.2-.2 1.2-1.2 3.2-.8 4.2m-105 27c1.9.7 3.7 1.8 5.8 1.5-1.3-1.9-3.8-1.8-5.8-2.3-6.1-1.6-12.2-4-18.4-5.7-24.7-7-47.3-18.6-72-24.4 30.2 10 60.1 21.1 90.4 30.9zm82.7-27.4c.5-1 2.7-1.9 1.8-3.4-.5 1.2-2.8 1.7-1.8 3.4m-19.9-1.9q.8 0 1.2.2.2-.6.6-1.1c-.4 0-.6-.5-1.2-.2q-.2.5-.6 1.1m2.1.6c.7.3 2.9 1.2 2.5-.6q-1.3 0-2-.6-.2.6-.5 1.2m4.8 0c.8 0 1.7.8 2-.3-.7 0-.9-.8-1.8-.8 0 .4-.4.6-.2 1.2zm10.2-.6q-.2 1.2.6 1.7c.6-.7 1-1.4.2-2.3q-.2.6-.8.6m39.3 1.4c1 0 1.9-1.4 1.2-2q-.7 1-1.2 2m2-1.7a22 22 0 0 0 5.7 1.1c-1.4-1-3.6-2-5.7-1.1m-68.5.9c.6 0 1.3 0 1.3-.6-.4-.5-1.6-.5-1.3.6m80.7.8c.8-.6 1.8-.8 2.3-1.7-1 .3-2.5 0-2.3 1.7m-71.4.3c0-1 0-2-1.1-1.7q-.3 1.7 1.1 1.7m10 0c1.6.4 1.1-1.5.2-1.7q0 1.2-.2 1.7m36.7 1.7c1 0 1-.8 2-.5-.3-1 .3-2.4-.3-2.9q-.7 1.9-1.7 3.4m36 4.5c0 .3-.8 1-.8.2a3 3 0 0 1 1.2-1.1c2 .8 3.5 3.3 5.7 3 1.5-3.3-3-6.3-3.7-8.4 2 1 2.8 3 4 4.8.7-9.1-15.5-8-17.6-2.3 1.3.2 1.2-.9 2.3-.8.1 1-.8.8-.8 1.4 1.3 0 1.8.8 2.9 1.1 1-.4 4-1.7 4.8 0-1.5-.2-3.5-.5-4 .8 1 .1 3.4.3 3 1.4-.6.3-1-1.3-1.3-.2.9.5 1.8 1.5 2.5 1.3v1.8c1.3-.4 3.9.4 4.2-1.4-1.2.3-2.8 1.5-3.6 0 .3-.7 2.3.1 2.5-.6-1.6.5-.8-1-1.2-1.1zm-92.8-6q0-1 .2-1.7c-1.5-.4-1.2 1.6-.2 1.7m36.4.4c0-.6 1.3-1.5.6-2-.2.7-1.8 1.6-.6 2m-41.8 2c-.5-1.9-2.8-3.5-4.2-3.5q2.1 1.6 4.2 3.4m8.4-2c0-.7.2-1.6-.5-1.6-.3.7-.5 1.6.5 1.7m7.7-.4q.6 0 .8.3c-.1-.7.6-.6.2-1.4-.3 0-.3-.3-.8-.2.2.7-.5.5-.2 1.3m20.1 2.1a4 4 0 0 0 2.6-2.9c-1.2-.4-2.8 1-2.6 2.9m7.4-1.5c.9.4.6-1.7.2-1.7q-.6.6-.2 1.7m4.5.4c0-1 .7-1 1.4-1.2.3.7-1.3 1-.2 1.4.2-.7 2 .2 2-.8-1-.8-2.6-1-3.7-1.4q-.7 1.4.5 2m-50.7 5.6c-2.4-3-5-5.9-8.9-7.4zm9.7-4.8c.8-.6.3-2.4-.8-2.6-.6.8-.4 2.7.8 2.6m10.7-1.2c1-.2 1.2.6 2 .6.4-.7.5-.6.2-1.4q-1.3 0-2-.6c.2.7-.5.6-.2 1.4m4.8-.2c1-.2 1.6.7 2.3 0 0-1-1.1-1-2-1.2 0 .6-.3.6-.2 1.2zm16.7-.6c.6.1.6.8 1.2.2.2-.9-1-1.1-1.2-.2m-18.2 2c.7-.5.6-1.6-.2-2 .4 1-.8 1.7.2 2m13 .3c0-.8 1.8-1.7.3-2.3-.4.5-1.5 1.8-.2 2.3m8.6-1c0-.1.6-1.3 0-1.3-.4.5-1 1.2 0 1.4m42.6-.6q1.2.1 1.4-.6c-.6-.5-1.3 0-1.4.6m-69.3 2.9q-.3-1.6-.8-3.1c-.6 0-.6-.4-1.1-.2.4 1.3-.3 3.8 2 3.4zm-29.2-1c3.5 1.7 5.8 4.5 8.5 6.8-.3-3.7-5.3-5.1-7.3-7.9 3.6 1.2 5.7 5.2 8.5 6.2a18 18 0 0 0-8.5-7.3c.1.9-.7 1.2-1.2 2.3m22.1-2c-2 3 5 7.7-.6 9-1.9.5-3.3-1.1-6.5 0-5.5 7-12.3 12.5-14.2 23q2.5 1 4.3-.2c0 1-.8.8-.8 1.4 1.8.4 2.8 1.1 4.2 0q.2-1.5-.6-2c0 .5.4 1.7-.2 1.7-.8.5-1.7 0-2.3 0 .5-.4.5-1.1 1.2-1.3 0 .4-.3 1.3.5 1.1.6 0 .2-1 .3-1.4-.5-.5-2.3.2-2.3-.8 2 0 4 1 4.2-1.1-1.7 0-2.9-.6-4.2-.8.3 1.4 2.8.6 3.4 1.7-1 .6-2.5-.7-4-.6-.6.5-.3 1.8-.8 2.3s-1.5.3-1.7 0c2.5-5.6 7.2-9 15.9-7.6 1.8-1.7 4.6-2.4 7-3.5-1.5-2-5.4-1.7-6.1-4.5-.6-.2-1.8.3-2-.3q0-2 1.8-2.5c1.5.6 4.7 1 4.8-1.4q-1.2.7-1.7-.5c1-1.9 2.4-4.7 5.3-3.7-1.5-2.7-.9-8.2-4.8-7.6zm-96.9 11.9c10.8 4.1 22 7 32.9 10.5 2.3.7 4.3 1.9 6.7 2.5 2.3.7 4.7 1.5 7.1 1.4-2.5-2.5-6.4-2.5-9.6-3.4-23.9-6.3-46.2-16.1-69.4-23-.7-.2-1.3.3-.3.2q16.1 5.5 32.6 11.7zm92.3-9c-.4-1.3-1.6-3.1-2.8-2.5 1 .8 1.5 2 2.8 2.5m47-2.5c.7 1.4 3.3 1.4 5.2 1.1-2.2 0-2.7-1.4-5.1-1.1m-27.5 1.6c0-.7.5-1 .6-1.4-1 .2-1.4-.4-2.3-.2q-.3 1.9 1.7 1.7zM209 214q1.9-.7 2.3-2.8c-1-.2-2.9 1.4-2.3 2.8m-19.5-2.5c.2 1.2 1.6 1 2.5 1.4v-1.1c-1.2 0-1.7-1-2.5-.3m7.8 1.6c.5 0 .7-2.3-.2-2 .4 1-1 2 .2 2m17.7-.8c.3 0 1 1.2 1.3.3-.7-.2 0-1.6-.8-1.4 0 .6-.8.3-.5 1.1m3.8.6c.7-2 3.8.5 5.2-.6-1.6-.8-4.2-.4-6-1.1-.5.7.6 1.1.8 1.7m-12.4 1.1q1.2-.2 1.7-1.1c-.6-.2 0-1.5-1.1-1.1-.6.8-1 1-.6 2.2m8-1.1v-1.1h-1.2q0 1 1.2 1.1m28 1.1c1.3-.2 1.4-1.4 2-2.2-1 .3-1.4 1.4-2 2.2m-13-.5c1.3-.5 3 .3 4-.8-1.5.3-2.9-1-4-.3.7 0 0 1 0 1.2zm20.1-1.2c-1.5.4-3-.5-4 0 .8.8 3.5 2 4 0m-40 3.5q1.5-1 2.6-2.6c-.5 0-.5-.4-.8-.5-.2 1.3-2.4 1.6-1.7 3m-8 32c-2.5-1.3-4.1-5-7.3-4.6 1.8.9 3 2.2 4.8 3 .3 2.4 4.9 3.2 3.4 5.4-1-.4-1-1.7-2-1.9-.3 2.4 2.1 3.3 3.7 2.9-1.8-2.9.2-4.7-.8-7.1 9-6.8 22-9.3 25-22q3-4.3 4.7-9.7c-2.4 2-5.7-1.3-8.2-.8 2 1.3 4 .6 5.4 2.5l-2.9-1.1c0 1.1 2.4.9 1.7 1.7a44 44 0 0 0-11.9-2.5c3.4 1.8 9.3.9 11.7 3.6-3.6-1.1-7.3-2.3-11.9-2.5-.1.6-.7.8-.6 1.7 3 .3 8.4.4 9 2.5a19 19 0 0 0-9.9-1.7c2 1.9 7-.3 8.5 2.3-2.3-1-5.4 0-7.9-1.1-.2 2.6-3.3 0-3.7 1.7 2.7 2.5 10.3 0 13 2.5-4.6-.7-10.3-.3-13.5-1.7-2 2.7-4.5 5-6 8.2 2 .5 6.8.4 9 1.4-2 1.3-7.6-1.6-9.9-.2 2.8.6 6.9 0 8.2 2q-4-1-8.8-1.5c0 1.6-2.4 2.7-3 4.3 1.3.5 5.3-.5 5.9 1.7-1.8-.5-5.6-1.6-7.1-.6 2.5.7 4.8-.2 6.2 1.7-2.4-.4-5.3-1.5-7.1-.5.9.5 3.2-.3 3.4 1-1 .7-3.3-1-4.6-.1 0 1.2 1.4-.4 1.8.8-.7.9-2.3-.7-2.6.5 1.9.3 4 0 4.8 1.8-1-.4-1.8-1-3.4-.8.1 1.2 2.5.2 2.5 1.7-1.8-.6-3.4-.5-4.5-1.2 0-.8 1.8.4 1.3-.8q-1 0-1.3-.2-.4 1.2-1.2 2c.7-.2 2.6-.4 2.9.7-1 .4-2-.8-2.5 0 2.1 1.3 5.1 3.2 5.7 5.2zm72-17.3c5.3 3.7 13.4 4.6 18.9 8.2.3 1 1.4 1.4 1.7 2.3 3.7-1.2 6.8-.4 10 1.2.9-2.8-1-5.4-1.2-8-10-3-18.7-9-28.6-11.3 0 1.3 0 2.8-1.1 3 .1-1.2 1.5-4 .8-4.1-1-.2-.4 1.1-1.4.8 0 1.3.5 3-1.1 2.9.7-1.3.7-3.4 1.7-4.3-2 .5-.7 2.7-2.9 2.9 0 1 .3 2.2-.8 2 .5-1.2 0-2.8-.5-3.7-2 2.1-3.5-2-3.7-3.1 1.5.3 1.3 2.5 2.5 3 1.4-5.8-7-9-13-9.5-.6 1.5 1.7 3.9.8 5.7-1.2-.6-.4-3.1-1.7-3.4-.8.9 1.7 3 0 4q-.4-.8-.3-2c-2.3.6-2.6 3-4 4.6 3.3 3.3 10.3 1.4 11.7 6.7-.8.4-1.5-.8-1.7 0q1 .4 1.4 1.4c-.7.7-.6-.5-1.4-.2q.2 1 1.4 1.1c.2-1.2 1-2 1.3-3q-.6-1.5-1.3-2.6c1.4 0 1.4 1.2 1.9 2 .7-1.9-1.5-2.6-.8-3.5.8.8 1.8 1.3 2 2.5.6-.8 3.4-.6 2.2.8-.7 0-.5-1-1.3-.8.2 1-.7.6-.8 1.2.5.4 2.2-1.2 1.9 1.1-1-.4-2.3-.7-3-.8 0 1.5 1.6 0 1.3 2 2-.4 5.8.6 7.6.2-1.6-.8-3.6-1-5.1-2 1.7-.3 5 .4 6.5 3zM192 214.9c0-1.7-1.5-1.7-2.9-1.9-.1 1.7 2 2.2 2.9 2m4.2-1.2q-.6-.7-1.7-.8c-.7 1.6 1.7 2.4 1.7.8m7.7 16.7c-4-4.2-1.8-12-3.1-17.5-.3 5.7-1 15 3 17.5m19.9-17.3c-.5 0-5.7-.3-3.1 0 .4 0 4.3.8 6 1.4-.3-.7-1.8-1.1-3-1.4m-30.8 2.3c1.2 0 1.5-2.4 0-2.3.2 1.2-.6 1.6 0 2.3m21.8-.8c0-.7 1-.6.8-1.4h-.8c.4.7-.8 1.2 0 1.4m-50 2.5c-2-.9-3.5-3.9-6-3.4.4 1.8 2.7 2.2 4 3 1.5 1.3 2.3 3.4 4.2 4 .7-1.5-2-2-2.3-3.6m16.4-.5c-.3-1.4-.6-2.7-2-2.9-.8 1.4 1.3 2 2 2.9m58.4-1.4c-1.7.1-2.6-1.8-4-1.2.7.8 2.5 2 4 1.2m-52.4-.6c.7.4 1 1 2 .8.3-1.2-1.8-1.8-2-.8m9.3 1.7c1-.5 1.3-1.6 1.4-2.3h-.8q-.3 1.2-.6 2.3m11.1 0c.5-.8 1.5-1.2.8-2.3-1.1 0-2.2 1.8-.8 2.3m7.3-.9c1.3.2.8-1.1 1.4-1.4-1 0-1 1-1.4 1.4m-15.9.6c-.1-.6.5-2-.6-1.7.3.5-.4 2 .6 1.7m11.7 1.1q1-1.5 2.3-2.8c-1.4 0-3.2 2.3-2.3 2.8m23.8-2.8c0 .3-.6.3-.8.5.7 2.2 3.3 2.4 5.3 3.1-.3-1.1 1.5-1.7.8-2.3-2.2 1.2-4-.5-5.3-1.3m-79.9 8.2c.5.2 1.4 0 1.8.6-.3 1-1.9-.3-2 1.1.4.6 1.8-.1 1.4 1.2-.7-.2-1.5-.6-2 0-.2 1 1.4.3 1.2 1.3-3.1 0-2 4.4-3.4 6 3.4.3 5.9 3 8.2 3.4l-2.9-3c1.2 0 2.5 2 3.1.7-.7-.5-1.8-.5-2-1.7 1.1-.1 1.8 1.6 2.4.2-1-.5-2.3-.5-2.9-1.3q.1-1.5 1.1-2c.7.2 1.2.8 2 .8 0-1.4-2.4-1.7-2-2.5 1.6.3 2.1 1.8 3.1 2.9 1.6-1.9-2.8-3.2-2.5-4.6 1.7.6 2.3 2.3 3.7 3-.3-2.6-3.8-3.4-3.7-5.3 1.8 1 2.5 3 4.2 4 .5-.6.6-1.5 1.2-2-1.6-3.3-4.6-5.4-7.3-7.6 4 1 5.3 4.5 7.9 6.7a9 9 0 0 1 1.7-3c-3.1-1.8-5.2-6-8.8-6.2 2.3 2.6 5.7 4.1 7.3 7.3-2.9-1.8-5-5.8-8.2-6.2.6 1-1 1.9-.8 3.1 3 1.3 6.1 4 7 6.5-2.5-1.8-3.6-5-7.3-5.7q-.6 1.3-1.3 2.3zm38-6.7c-1.2 0-1.7-.7-2.8-.8 0 1.2 2.7 2.2 2.8.8m2-.6c-.3 1.1 1.7 1.1 1.3 0-.9.1-.9-.6-1.3 0m19.2 1.1q.7 0 1.1.3c-.1-.7-.2-1.5-1.1-1.4zm-38 2c1.5-.4 3.2-.5 4.2-1.2q0 .6-.2.8c.5 0 1.5.4 1.4-.2l-2.9-2.3c-.7 1.2-2.3 1.3-2.5 2.9m35.1 0 .8 1.1c.5-1.1 2-1 1.7-2.8-1.1 0-.9 1.6-2 1.7 0-1.3 2-1.9 1.2-2.9-.4 1-1.6 1.4-1.7 2.9M189 217q-.5-1-2-1.1c0 1 1.3 1.9 2 1.1m18.4 1.1q1.5-.4 1.7-2.2c-.9.3-2.3 1.2-1.7 2.2m-37.4-1.1q.4 2 2 2.9c.3-1.6-2-2.1-1.2-3.1 1.3.2 1 2 2.3 2.3 0-.8-1-2.8-2.5-2.9q0 .7-.6.8m66.8 1.6c-1.3-.8-2.8-1.4-3.7-2.5-.8 2 1.4 2.7 3.7 2.5m-42.8-1c.8.3 1.6.4 1.4-.8-.6 0-.6-.4-1.2-.3 0 .6-.3.6-.2 1.2zm51 .2q1.8.1 2.3-1.1c-1 .4-3 .4-3.6-.3q.1 1.2 1.3 1.4m-55.4-.6c.6.6 1.8.8 2.5 1.4.4-1.6-2.2-2.4-2.5-1.4m6.7 1.2c.3-.5 1-1.2 0-1.4-.3.5-1 1.1 0 1.4m1.5.5c.4 0 .6-2-.2-1.7-.3.3-.8 2 .2 1.7m9.8.8c1 .6 1.5-1.3 2.3-1.9-.3 0-.6-.5-1.1-.2 0 1.1-1.4.9-1.2 2.3zm6.3-.8q1.6.1 1.7-1.1-1.5-.1-1.7 1.1m-43.1 2.3c.7-1.3-.7-2.6-1.7-3-.5 1 .9 2.3 1.7 3m17.3-2.6c.7 0 .4 1.1 1.1 1.1V218q-1-.1-1.1.6m16.4 11c-1.7-2.2-1.8-8.3-2.8-11.6.2 4.4.3 10.4 2.8 11.7m28-11.6a13 13 0 0 1-1.3 3.1c2.5 1 5.8-1 6-2.3-1.2 1-3.7 0-4.6-.8m-38 1.6c-.1-.6.6-.5.2-1.3-1-.3-1.1 1.3-.2 1.3m3.8 0c.9.5 1.3-1.6.2-1.3.2.8-.4.7-.2 1.3m-5 1.5c0-2-1.9-2.1-3.6-2.5.2 1.8 2.2 2 3.6 2.5m76 0c.2.7 1.4-.2 2 1.2q.8-2.2 3-1.2c-.3-1.2.8-1.1.6-2.3-.8.3-.7-.3-1.4-.2-.3 1-2 .6-2.5 1.4q1 0 1.1.6c-.6.8-3.3-1.2-2.8.2.2-1 1.1.7 0 .2zm-102.3.6c1 .6 1 2.2 2.3 2.3 0-1.5-2-2.3-1.3-3.4 1.1.2.9 1.7 1.9 1.9q0-.3.6-.2-1-1.8-2.3-3.1c-.1 1-1 1.4-1.2 2.5m16.2-2.3v.8c.9.1.9-.6 1.3 0 0-.6-.3-.6-.2-1.1-.6 0-.6.3-1.1.2zm4.5 1.2c0-1.4-1.1-1.5-2.5-1.4.3 1 1.9 1.8 2.5 1.4m20.2.5c.4.3 1.7-1 2-2q-1.4.8-2 2m28.6.3c.2-1 2.1-1.4 1.3-2.3-.2.9-2.1 1.3-1.3 2.3m-38.6-.6q.2-1.7-1.4-1.4c0 1 .7 1.2 1.4 1.4m8.8.3c.4-.4 1-1.1 0-1.3 0 .2-.7 1.3 0 1.3m36.9-.9c-1.2.2-1.5-.4-2.6-.2.2 1.5 2.2 1.7 2.6.2m-53.6 1c-.4 0-1.1-1.6-1.7-.6.5 0 1.3 1.3 1.7.5m8.5-.5v.5q.5 0 .8.3l.2-.6q-.3 0-.2-.6h-.6q0 .4-.2.2zm10.5 2.5c.1-.8 2.4-2.2.8-2.9-.3.7-2.4 2-.8 2.9m-77.9-2.3c0 1.1 2.2.2 3.1.6-.8-1.2-2-.7-3-.6m65 .9c-.6 0 0-1.3-.8-1.1 0 .3-.5.5-.2 1.1.7-.3 1 .7 1.1 0zm-3 1.1c.1-1.4-2-1.9-2.6-1.7.7.7 1.1 1.6 2.5 1.7m-7.3-.5c1.3 0 1.7.8 2.9.8-.5-1-1.6-1.2-2.3-2 0 .6-.8.4-.6 1.2m3.3-.6c-.6-.1-.7-.6-1.4-.6 0 .7 1.3 1.6 1.4.6m9.2.8c-.2-.7-1.3-1.7-1.8-1.1.4.4 1 2 1.8 1.1m-14.6-.8c.1 1 1.3 2 2 1.4-.2-1-1.4-1.9-2-1.4m24.4 1.7c-.5-.6-.2-1.8-1.1-2q.1 1.5 1.1 2m25-1.1c1 .2 2.3.4 2.4-.8-.6.4-1.8.4-2.5.8m26.7 6.7c-2.3-3.6-7.1-4.8-10.5-7.3-.6.7-1.5 1-1.8 2 3.6.6 5.8 2.8 8.8 4-1.6-.5-6.6 0-7.8-1.8q1.6.5 3.4.6c-1-1.5-3.3-1.8-5.2-2.5-.6 1.7-3 1.7-3 4h-1.4c.8 6.6 3.4 15.5 10 16.1 2.8.2 5-1.8 6.7-2.8-2.3-.8-4.1 3.5-6.8 1.3 1.5-.3 4.6-.5 4-2-8.3 5.1-13.1-5.2-13-12 1-.5.6.8 1.4.5.2-.5-.8-.9 0-1.1 2.5 1.2 4.4 3 7.3 4-2.6.7-4.7-1.7-6.5-2.9 1.1 2.7 4.5 3 6.7 4.6-4 .2-5.7-3.3-8.2-3.6.4 3.3 4.1 7.4 7.3 7.8-2.6-2-5-4-6.5-7 3.2 2 4.4 5.9 8.2 7.3-3.8 2.3-6.4-2.8-8.4-4.8 1.6 4 6.8 9.1 11.3 5.1a5 5 0 0 1-2.9 2.5c-3.2.7-5.8-3.4-7.6-4.2 1 1.6 2.5 2.5 3.4 4.2 1.2 0 2.2.6 3 .6 3.3-.1 4.5-3 6.6-4.6-.2 1-1.7 2-1.2 2.9 3 0 3.8-2.4 6.6-2.9q-.4-2.6 1.1-3c-.6-1.5-1.5-2.8-3-3.1 0 1.3 1.9.9 1.6 2.5-1.4.3-5 2.6-6.1.5 2.1.3 4.3-1.7 5.3-.8-.2-1.6-2.8-.9-4-1.7 0-.9 1.3-.2 1.4-.8-1.5-.3-1.5-2-2.9-2.5-1.8 5-8.4-.2-11-.2 1.7 1.8 5.1 1.8 6.7 3.6-3.4-.9-6.7-2-8.2-4.8 3.3.8 6.5 2.4 10.1 2-.2.9-1.6 0-2.2.8 1.8 1.2 3.7-1.5 4.8-1.7.9.2 1.2 1.2 2.2 1.3zM135.9 240q1.7.3 2.9 1.7a31 31 0 0 1 2.5 13c1-.2 1.6-1 3-.8-3.2-3.8-3.2-10.8-5.3-16.4-1.7-4.7-5.1-8.6-4.8-15-.9 0-2.3.2-2.8-.3 1.4 5.6 6.6 11.4 4.5 17.9zm59-16.2c-.3-.6-.2-1.4-.9-1.7 0 1 0 1.9.8 1.7m4-.2c1.2.1.8-1.5 0-1.4zm6.4 5.4q0-.8.3-1.2c-1.3-1.2-1.7-4.9-2.9-5.3.8 2.1 1 5.1 2.5 6.5zm-10.4-4.4c-1.7-.8-3-1.8-5.1-2.2 1.2 1 3.9 2.1 5.1 2.2m1.2-.2c0-.6.8-.4.5-1.4q-.5-.2-1.1-.5c-.3.3-.1 1.8.6 2m34.5-.9q1.6.1 2-1.1-1.4.1-2 1.1m-95 4.5c.4 1.2.5 3.2 1.5 3-1.5-2-.8-6.2-2.3-8.4 0 2.2.3 3.7.8 5.4zm32.5-2.5c.8-.7-.3-2.8-1.8-2.9-.4 1.1.7 2.3 1.8 2.9m73.3-1.4c-1.8.2-2.3-.8-3.5-1.2 0 1.9 2.3 2 3.5 1.2m-56.4.4c.2-1-.7-.9-1.2-1.3-.9.8.6 2 1.2 1.3m6-.8c-1 0-1-.8-2-.5 0 .8 1.7 1.6 2 .5m-4.9.4c1.6-.2 3 2.3 4 .8-1.1-.4-2.7-2.3-4-.8m12.5 1q.1-1.7-1.4-1.7c-.1 1.3.8 1.3 1.4 1.7m30.9-.2c.4.3 3.6-.5 2.8-1.4 0 1.3-2.6.2-2.8 1.4m51.4-.8c3.4-.2 7.4 1.2 11.1 1.7 1.3.1 3.2-.7 4 .8-5.1 0-8.7-1.4-12.7-1.4 2.9.6 5.2 3.3 8.5 3.7s6.8-.6 9 2c-1.3-7.3-13-7.7-19.7-6.8zm-81 1.4c0-.8 0-1.6-.7-1.4 0 .7 0 1.5.8 1.4m-33.4 1.3q.1-.4.5-.5-.3-1.4-1.3-2c-1 .8 0 2 .8 2.5m18.7-1.3c.7 0 1.3 0 1.2-.8-.4 0-.4-.4-.8-.3 0 .6-.4.6-.3 1.2zm-.3.5c-1-.4-1.3-1.5-2.5-1.3 0 1 1.7 2 2.5 1.3m7.6-.9c1 .5 1.9 1.3 3.1 1.4 0-1.3-2.7-2.3-3-1.4m5.9 1.5c0-1.3-1.8-2-2.5-1.4.9.5 1.2 1.5 2.5 1.4m62 1.1c-.5-1.8-3-3-4.8-2.5q3 .7 4.8 2.5m-74.1-1.7c.9 0 1.5 1 2.3.3-.2-1.2-2-1.6-2.3-.3m3.9-.5q.3 1.2 1.7 1.1c.3-1.3-1.3-1.5-1.7-1.1m38.2 2.5c.9-1.3 3-1.4 3.6-2.9-1.2.8-4.4 1-3.6 2.9m-41.3 6c.8.3 1.6 1.3 2.3.2-.7-.5-2.1-.3-2-1.4 1.3 0 2.6 2 3.4.6-1.9-1-4.2-1.7-5.3-3.5 2.4.7 3.9 2.3 6.1 3.1a63 63 0 0 0-12.4-7c1.2-.3 2.5.8 3.4 0-1.3-.8-2.6-.5-4.8-.7 2 4 8.5 3.5 9.4 8.5zm-21.5-6c0-1-.6-1.4-.6-2.3-1.8.3-.7 2 .6 2.3m26.8-1.7c.6 1.6 3.1 1.2 3.7 2.8.3-1.4-2.5-3-3.7-2.8m-3.6 1.1c.8 0 1.4-.7.8-1.1q-1.2 0-.8 1.1m7-.8c.3 1 2.1 2.5 3 1.1-1.2 0-1.8-1.8-3-1m4.3 1q0-1-.8-1.3c0 .8 0 1.6.8 1.3m-10 3.1a26 26 0 0 0-7-4c2.3 1.4 4 3.3 7 4m-4.7-3.6c.5.2 1.9 1.1 2.2 0-.8 0-1.8-1.3-2.2 0m4.8 0q0 1 1.1 1.1c0-.3.5-.6.2-1.1-.7 0-.9-.6-1.3 0m39.3 2.3q1.8-.2 1.7-2.3c-1.5.2-2.7 1-1.7 2.3m2.3.2q.6.7 2.3.6-1-1.6-2.3-2.9zm-67.4-.2c.7-.7 0-2-1.1-1.8 0 1 .8 1.2 1.1 1.8m23.2-1.5c0 .8.6.7 1.2.8v-1.2c-.6 0-.6.4-1.2.3zm7.7 1.7c-1-.4-.7-.4-.6-1.4-.8.2-.7-.3-1.3-.2-.4 1.4 1.4 2.7 1.9 1.7zm-6.3-.6c1-.2 1.2.6 2 .6q-.2-1.3-1.4-1.4c0 .5-.5.5-.6.8m14.2 2.3c-1.4-.5-1.3-2.3-2.3-3 .2 1.3 1.1 3.5 2.3 3m-.8 1.1c-1-1-1.6-3.8-2.9-3.6 1.2 1 1 3.3 2.9 3.6m24-2c1.5 1.2 2.8-1 2-2-.5.8-1.9.8-2 2m-62.6.3c.6-.7-.3-1.6-.8-2-.4.7 0 2 .8 2m101.2 8.5c1-.8.8-3 1.9-3.7l-1.7 6.8c-.5-.5-.5-2 0-2.5-2 1.1-1.7 4.8-3.1 6.5-.3-2 1.1-4.5 1.7-6.5-2.8 1.1-2 5.7-3 7.9-1.3-3 1.3-6 1-8-1.9 2.1-2 4.9-2.2 7.4-1.6-2.3.4-4.6.2-6.8-3 3-1.4 6.8-.2 10.6a92 92 0 0 0 10.5 23.2c1.7-2.2 2.5-5.4 4.6-7.4-.6 3.6-3.1 5.2-4 8.5 2.5-.7 3-5.8 5.3-7.7-.4 3.6-4.3 6.6-3.6 9.4 1.6-2.7 2.8-6 4.8-8.4-1 3.5-3.1 6-4.6 9.3 2.4-2 3.2-5.8 5.2-8.4.2 3.2-4.3 7-3.7 9.6 1.5-2.9 2.7-6 4.6-8.5.4 1.4-1.3 2-.6 2.9.2-.5.5-1.5 1.2-.8 0 .4-1.2 1.3-.3 1.7q0-1 .8-.8c.4.7-.9 1.2.3 1.1.9-.5-.2-1.5.5-2 1.6.8-.9 2.8.6 3.5 1.7-.7 1.8-3.3.8-4.6-1 0-.8 1-2 .6.4-4.9-2-9.1-3.4-13.6-3.2-10.8-6.3-21.8-13-29.1-1 .4-1.2 0-1.7.2 1 1.6 2.8 2.3 3.6 4 0 1.8-2.8 4.5-.5 6zm36.2-6.8q-2.4-3.3-8.2-3.4c2 1.6 6.2 2.6 8.2 3.4m-71.1-2.8c-.4 1.1.9 1.4 1.3.8.3-1.3-.6-1.2-1.3-.8m11.9 3.7c-.1-1.5 0-3.5-1.2-4 .6 1.8 0 3.3 1.2 4m-11.6-1.4q-.4-1.4-1.4-2.3 0 1.8 1.4 2.3m-70.2 0c.1-.7.7-1.5-.2-1.7-.5.3-.7.8-1.4.8 0-.8.4-.6 0-1.2-2.2.7.9 1.6 1.7 2zm3-.4c0-.9-.7-1.1-1-1.7-.9.8.4 2.4 1 1.7m29.2-1.3c0 .9 1 .6 1.8.8 0-1-1-1.5-1.8-.8m7.4 1.1c0-1 .6-1.4-.6-1.4q-.2 1.2.6 1.4m40.8 9.4c.8.9 1.6.2 2.5 1.1 0-1 0-1.8-1.1-2.5-.7.4.5 1-.3 1.4-.8-.8 0-4.1-.2-5.4q-.3 0-.2-.6v-.8c-.2-.9-.4.5-.2.8 0 2 .2 4.6-.9 5.8-.2-2.2 1-8.6 0-9.7-.6 3.3-.9 9-.8 11.1a3 3 0 0 1-1-1.1c1.2-3 .7-8 1-10.5-1.3 2.5-.5 8-2.5 10.7.8.6.3 2.8.3 3.5-.4 0-.8-1.2-1.2-.3q1.6.8 1.7 3.1c-.3.8-1.1 1-1.3 1.7 1 1.7.2 3.3-1.2 4.6 1.3-.6 1.5-.2 2.9-.6-.4-1.3-1.4-4 0-4.8-.3 1.6.4 2.4.2 4 2-.7-1.3-4.3.8-4.5q0 2.6.6 5.1c-.4 0-.6.5-1.2.2 0 .6.8 1.9.3 2-.8 0-.3-1.4-1.2-1.4-.1 2.7 1.8 2.4 3.1 3q.1-1.2-.6-1.6-.1.7-.8.2c.1-.6-.3-1.8.3-2 0 .3.5 1.5.8.6-.5 0-.6-1.8.2-1.3q1.1 7.7 3 15c2-2-.6-4.9-1.3-7.4-.7-2.6-.7-5.5-.8-7.9.5.4.4 1.4 1.2 1.4-.7-1.1.2-1.8.8-2.5-1.4-.4-1 1.1-2.3.8-1.8-1-2.2-4.6-2-6.5 1 .4 2.8.9 3.1-.6-1.6.2-1.4-1-2.5-1.7-.2 1.2 1 1.1.8 2.3-1-.3-1.3-.8-2.3-.3-.3.7 1 1.4 0 1.8a11 11 0 0 1-.8-5.8c.7.5.8 1.6 1.7 2 .4-.8.6-1.8 1.4-2.3zm2-1.2c1.3.3-.6-1.8.5-2.2q.8 1 .6 3c1.7-1.4-1.3-5-2-6.1.7 1.3-.2 4.4.8 5.3m25-6.5c7 1.2 12.3 4.1 20.1 4.6.8 1.3 2.6 1.4 2.5 3.4l-10-3.4q0 .8-.2 1.1c-.6 0-1.3 0-1.3-.5-.8.5-2 0-3.1-.3-1.7-.2-4.4 0-4.8-1.3 3 .4 6.6.3 8.8.8-2.5-1.7-5.9-.8-9.6-1.7.3-.8 2.5.2 2.8-.6-.7-.5-2.7-.5-3.4 0 .8-1.3-.3-1-1.1-1.4.9 2 2.5 3.6 2.8 6.2 4.1-2 8.3 2.3 11.7.2-.4-.3-1.4-.1-1.4-.8 2.9-.8 7 1.8 10 2.9.8-.3 1.1-1 2.2-.8-4.9-6.9-17.7-6.4-25.7-9.4 3.6-.6 8.1 1.6 11.1 1.7-3.9-1.8-7.2-4.1-12.7-3q1.4.7 1.7 2.4zm-71-.9q0-1.4-.9-1.7c-.4.6 0 1.7.8 1.7m-67-.8c2.4.3 3.8 3.6 5.9 3.4-1.9-.9-4.3-4.2-6-3.4m70.2 1.1q-.2-1.2-1.1-1.7c.2.7.2 1.6 1.1 1.7m31.5-.9c.9.7 2.2-.2 2.5-.8-1.5.3-1.8-.2-2.5.8m-38 0c-.4-.3-2-1-2.5-.2.7.2 2 1.6 2.5.2m32 .6q1.1 0 1.8-.2c0-1.5-1.8-.6-1.8.2m-62.5 1q-.1-1.6-1.4-1.8c-1 1 .8 2.2 1.4 1.7m66.2.6c0-1-1.1-2.3-1.7-1.7.7.4.4 1.7 1.7 1.7m7.7 7c.8-2.7 1.3-6.3 1.7-8.7-2-.7-4 4.6-2.3 5.7.1-1.8.2-3.8 1.1-4.8 0 1.7.4 6.4-2.8 6 0-1.9-.4-3.4-1.7-3.7.8 0 1-.7 1.3-1.2-1 0-1.1 1-2.3 1.2.5.9 0 1.2-.8 1.7q0-.6-.2-.8-.7 1.9-2.8 2.3c0 .8.8.7 1.1 1.1q0-.8.2-1.1c1-.1 0 1.4 1.2 1.1 0-1.2-.5-1.7.5-2.3.3.8.3 1 0 1.8h1.2q0-1.6.6-3c.8 0 1.3 1.8 1.1 2-.5 0-.5-.4-.8-.5.2.9-.3 1-.2 1.7.5-.2.9.8 1.1 0q-.5-.2-.6-.8c1 1.1 4 .8 3.5 2.5zm-103-.3c.1-2.2-2.3-5.3-2-7.6-.7 0-1-.5-1.4-.6 1.3 2.6 1.7 6 3.4 8.2zm64.4-5c.4-.4 1-1.1 0-1.4q0 .7-.2.8c-.1-1 .4-2.7-.8-2.5q-.1 2.2 1.1 3.1zm1.2-1.5c-.2-.7 0-1.7-.8-1.7q0 1.4.8 1.7m30.5-.2q1.2-.3 1.7-1.2h-2q0 .8.3 1.2m-34 .6q.4-.6.3-1.4h-.8q-.1 1.2.5 1.4m27.8-.4q1.2 0 1.7-1.1c-1-.1-1.2.6-1.7 1.1m-61.7.6q0-1.3-1.4-1.1 0 1.3 1.4 1m33.4 1.2c0-1.1-.6-1.6-.8-2.2-.7.8 0 1.9.8 2.2m32-.8a4 4 0 0 0-1.4-1.3q.1 1.4 1.4 1.7c.3-.5 1.7 0 1.7-.8q-1.4-.2-1.7.6zm-93.1 5c2.2-1-.7-5-2-6.1.6 2.2 1.8 3.8 2 6.2m25.1.3c-2.1-7.3-12-6.3-18.6-5.1q-.8-.9-2.3-.8c.7 4 5 2 7.3 2 1.5 2 5.2 2.9 7.7 1 1.3 1 1.8 4.3 3.7 3.7q-1.6-2-3.1-4.2c2.6 1.1 3 4.4 5.7 5.7a37 37 0 0 0-5.4-6.5c2.8.7 3.3 3.4 5.4 4.8 1-1.5-.8-4-1.7-3.7.7.7 2 2 1.3 3.1m34.2-4.8c.2-1-.3-1.1-.8-1.4-.5.6 0 1.5.8 1.4m41.1.2c1.1.3.2-1.4.8-1.7h-.8zm-53.5 0q-.2-1.2-1.4-1.3.2 1.2 1.4 1.3m10.5.6c-.2-.7.8-1.6 0-2-.3.5-1 1.8 0 2m5.7-.3q-.1-1.3-.8-1.7c-.6.6 0 1.7.8 1.7m-14.7 0c.2-.7.3-1.5-.8-1.4 0 .7 0 1.5.8 1.4m37.6.5q1.8-.6 2.9-2c-1.5.2-1.9 1.5-3 2m-60.2-.8c2 0-.4.8 0 2 1.2-.2 1.2-1.5 1.4-2.5-.6 0-.6-.4-1.2-.3q0 .6-.2.8m17.5.8q.3.7.8.8c0-1.1.6-1.8.2-2.5-.2.8-1.1.7-1.1 1.7zm48.2-.2c-1-.2-1-1.4-2-1.4 0 1 1.2 2.2 2 1.4m-89.8 2q.3-2.8-1.7-3.1c.5 1 .5 2.6 1.7 3m48.1-1.9c.3.1 1.4.7 1.4 0-.7 0-.4-1.1-1.1-1.1q0 .7-.3 1.1m121.8 6.8c.6-2.2.6-6.8-1.3-8 .5 1.6.4 5.4 1.3 8M166 237.6q.8 0 .6.8c-1 0-1.5-.8-1.7.2q3.9.5 6.1 1.7c0-.8-.8-1.7.3-2 .2.5 0 1.6.8 1.5-.7-1.4.6-1.2 1.3-.6q-.1-1.6 1.4-1.4c-1-1.4.7-.7.8-1.7-.6-.3-2.2 1.1-1.7-.6-1.5 1.3-3.8-1.1-5.2.6 1.3 0 1.9-.5 2.3 0 0 1-1.3.5-2.3.6 0 1.1 1.9.4 2.3 1.1-1 .7-3.4-.3-3-1.1-.6.2-1.7 0-2.3.8zm13.4-.2q.3-.6 1.1-.6c0-.8-.7-1-1.1-1.4.3 1-.7 1.7 0 2m19.2-.6c.8 0 .7-.6.8-1.2-.4 0-.4-.3-.8-.2-.2 1-.2.6 0 1.4m22.6 0c1.3.2 1.8-.4 2.3-.8-.3 0-.2-.5-.5-.6-.3 1-1.5.6-1.8 1.4m-29.1.8c1.1 0 1.1-2 0-2zm2.5-.2c0-1 .1-1.9-.8-1.8-.5 1 .1 1.3.8 1.8m1.7-.4c0-.7 0-1.2-.8-1.1 0 .7 0 1.2.8 1.1m111.3 6.5c-.2-3 .2-5.8-1.7-7.6 1.3 2-.3 7 1.7 7.6m-117.2-6c1.3 0 .8-1.2 0-1.3-.6.6 0 .7 0 1.4m-1.2.3c-.1-.5.4-1.7-.6-1.3-.4.4-.4 1.6.6 1.3m33.8.3c.2-.6 1.3-.4 1.3-1.2-.5-.8-2.4.5-1.3 1.2m86.3 6.2c.3-1.9-.5-4.2-.2-5.1 2.3 1.1-.4 5.4 1.7 6.7.2-1.3-.4-3.5.2-4.5 1.4 2-.7 5.8 1.2 7.6 1.6-6.3-1.5-10-4.6-12.4 1.1 2-.6 6.7 1.7 7.6zm-162-6c-1-1.4-3-1.5-4.8-1 1.5.2 4 1 4.9 1m38.7-.5c.4-.8-1.1-1.2-1.3-.5.4.3.6 1.2 1.3.5m36 .8q0-1.7-1.8-1.7c-.4.7.5 1.8 1.7 1.7m-37.6 1.7c-.7-1-.8-2.5-2-3 .5 1.2.6 2.8 2 3m1.5-.2c-1-.8-.8-2.5-2.3-2.8.5 1 1.3 3.2 2.3 2.8m7-1.5c.5 0 .5.4 1.1.3.5-.5-.1-1.3-.6-1.8 0 .6-.5.7-.5 1.4zm1.7-1.1q.2 1.4 1.4.8-.2-1-.8-1.2 0 .5-.6.3zm-53.5 4.2q-.6-2 0-4-.8 0-1.2-.2 0 2.6 1.2 4.2m42-1c-.5-1.3-.6-2.9-2-3.1q-.4 0-.6.2c1.3.6.8 2.8 2.5 2.9m34.2-1.5c1.2 0 3-.8 2.3-1.7-.6.8-2 .7-2.3 1.7m71.7.3c-1-1.1-5-2-5.7-1.7 1.9.4 4.1 2 5.7 1.7M180.1 241h1.1c0-1.4-1-3.5-2.3-2.8q1.4.6 1.2 2.8m-38.6.8c1-.6 1-2.3 1.4-3.4-.3 0-.6-.5-1.1-.2-.8 1-.3 2-.3 3.6m10.2-2.2c-.9-.4-3-1.4-3.6-.5 2-.1 4.3 2.4 5.9.8 0-.7-.5.3-1.1 0 .3-.4 1-1.5 0-1.7q-.7.6-1.2 1.3zm27 2c1.7-.5.6-3.7-1.1-3.4.4 1 1.2 1.7 1.1 3.4m7.3-1.7c1.3.2 1-1.5.3-1.7 0 .6-.5.8-.3 1.7m2.3 0c.5-.5.4-1.9-.6-1.7 0 .8 0 1.7.6 1.7m73.3-.8c.6.5 1.5 0 1.4-.8-1-.1-1.1.3-1.4.8m-118.4 1.1c1.2.2 2.1-1.8.6-1.7zm34.4 1.6c.6-.9.2-3-.8-3h-.6c.8.6.4 2.4 1.4 3m41-2.5c0 .7.6 1 0 1.4 1 0 1-1.2 2.3-1.2-.2-1.7-1.3-.2-2.3-.2m-72.8 2.9c-.3-1.3.4-1.6.2-3-.4 0-.4-.2-.8-.1-.5.9-.4 2.6.6 3m113.9-1.9c0-.8 1.6 0 1.4-1.1-1-.3-1.9.9-1.4 1.1m-85.2-.6c0 .3.4 2.4 1.3 2.6 1.3-.5.2-2.3-.2-3q-.7 0-1.1.3zm45 2.2c.5-1.4 2.9-.8 3-2.5-1.4.3-3.5 1.4-3 2.5m-72.6 0q.7-1 .6-2.3h-.8c.4 1-1 2.2.2 2.3m78.5-1.6q-.2 2.3-.6 4.2c1.3.4.3-1.3 1.4-1.1.9 2-2 1.3-2.9 2 2.3.7 3.7-.3 5.4-.9-.4 1-1.4 1-2 1.8 2.4.5 4-1.2 5.2-.8-1 2.1-4 .8-5.4 1.9 2.9 1.5 6-1.1 8.2 0-1.8 1-3.3.8-5.1 1.4 2.7 2 5 .3 7-1.2-.6-3-2.5-4.8-3.3-7.6-2.8 0-5.9 0-8 .2zm-77.6 2c1 0 .6 1.3 1.4 1.3q-1-2.2.2-3.4-.7 0-1.1-.2zm26.7.2q.1-2.2-1.7-2.5.6 1.6 1.7 2.5m14-1c-.8-.2-.6-1.3-1.3-1.4-.4 1.1 1 2 1.3 1.4m-.2-1q.4 0 .2.6.9 0 1.2-.6-.4 0-.2-.5-.9 0-1.2.5m27.8 2.3c1.1 0 1.4-.7 2.5-.5-.7-1.2-2-1.6-3-2.3-.8.9.4 2 .5 2.8m20.4-.3c-.5-1-.8-2-1.8-2.5.5.9.4 2.4 1.8 2.5m-103.7-1c.4 2.1 4.5 0 5.4 2.2-.1-1.1-.3-2.2-1.4-2.5q.1 1-.5.8.1-1.7-1.4-1.7c-1 1-.3 2.2-2 1.2zm174.5 17.8q.3 0 .2.2c.2 1.4-.4 2-.6 3.1 3.9 1 5-3 6.8-5.1-.8-.4-.8-2.8-1.8-2 .5.6 1.2 2.8 0 3.1-1.1-4 .5-12.3-4.5-14.2-4.3-1.6-8.6-4.2-13.9-2.8-2.6.7-6.3 4-7.9.8a4 4 0 0 0 3.7.2c-.6-2-6.7-2.5-7.9-1.1-.8 1 1.4.9.6 1.9-1.6-2.4-7.5-4.3-10.5-2.5 4.4 1.4 9.8 1.8 11.9 5.7q-4.7-3.3-11.1-4.6c.6 2.9 2.5 4.6 2.8 8 3 1 4.4 0 7.1-.3-1.2.6-.3-1.2-1.4-.8q-1.6.2-2.5 1.1a7 7 0 0 1-.6-5.7c1 .6 0 1.7.6 2.5 1.2 0 .4-2 1.7-1.7.7.8-1 1.2-.5 2.5 7.4 1.3 14.3-2 20-4.2.9 3 6.6 1 8 3-2.4 0-5-1-6.5-.7.9 1.1 3.2.9 4.2 2-1.1.4-3.3-.4-4.2-1.2.7 3.5 8 .3 8.8 4-1-.2-.6.8-1.4.6-3.5-1-7.9-1.2-8.2-5.4-1.7-2-2.8.2-4.8.8-2.4.7-4.6-.1-6 1.1 1 1 2.6-.5 3.4.3-1.2 1-3.4.4-4.8 0 .6 1.6 4.4.3 5.4.8-2 1.8-6.3 0-7.9-.3 1 1.7 4.5 1 6.5 1.7-2.6 1.3-7.2-1.1-9-.8-.2 3-4.6 1.9-7 2.6.8.3.5 2 1 2.8 4.8 1.4 10.8 0 13.3.2-3.2 2.4-8.3 1-13 .6 1.7 1.7 5.7 1.3 8.5 2 0 .8-1.5-.3-1.4.5 3.5 1.6 6.7 2.2 11.6 2.9a19 19 0 0 1-11.3-2c1.4 2.6 6 2.1 8.8 3.1-6.4 1.3-9.2-3.4-15.3-3.4a37 37 0 0 1 1.7 5.4c1.2 0 1.3-1.2 2.9-.8-.6 1.3.9.8.8 1.7-.7-.2-1.8-.7-1.7.6 1.7.2 5.1 1.4 6.1 4-3-1.2-5.3-3-7.8-4.6 0 1.8.9 3 .8 5.1 1.1.1 1.4 1.2 3 .8 0-1.1-1.6-1-2.2-1.7.3-.2 0-1.1.5-1.1 2 2 5.5 4 8.3 1.3q.8.3.8 1.2c-1.5-1.3-2.3.7-3.7 1.1.8 0 2 1.5 2.3.3q-1 .1-.8-.6.4-.9 1.4-.8c.2.8-.4.7-.3 1.4.7-.3 2 .3 2.3-.3-.6 0-1.8-.5-1.1-.8 2 .3 7.3 2.8 7.3-2 .3 0 1.1 1.3 1.1 0-1.8-.7-3 1.3-4.8 1.5-.4-2.7 4.4-2.8 5.4-2 2.4-1.4 4-3.4 6-5.1-.4-1.4-.3-3.7.8-4.3zM150.7 243q-.2-1.6.6-2.3c-.6 0-.6-.4-1.2-.3-.4.6-1.2 2.9.6 2.6m17.3.3c.8.5 2.8-.3 1.9-1.4-1-.2-.2 1.3-1.1 1.2-.5-1.4 1.3-1.9.5-2.5-.9.4-1.1 1.7-1.3 2.8zm3-2.3c1.2.2 1 1.7 2 2 .3-1.9-1-3.1-2-2m52.7 3.1c1.3-.5.3-2 .8-3.7h-.8c-.6 1.2.4 2.3 0 3.7m22-1.4c-.9-.2-.9-1.3-2-1.3-.7 1.6 2.1 2.5 3.2 1.1-.8-.5-.7-2-2-2 0 1.2 1.7 1.3.8 2.3zM143 241c0 1 1 1 1.7 1.2.3-1.2-.9-1.9-1.7-1.2m70.2 1.7c-2-1.5-4 .7-5.7 1.4.3.8.1 1.7.6 2.3 1-1.5 1.4-3.4 3.4-3.7 1 1 4.3 0 3.1 1.7 1.7-.4.2-3.6-1.1-3.6-.5 1 .8.6.5 1.4q-.4.2-.8.5m3.4 1.2c2.7.7 4-1.9 6.1-2.5q0-.5-.2-.6c-1.5 1.5-4.1 2-6 3m-65.2-.5c.8-.2.5.6 1.1.6 0-1.3.7-2.3-.6-2.9-.2.7-.7 1.3-.5 2.3m30.7-1.5c2-.6 3.3 0 5.4.2-.8-1.4-4.2-1.3-5.4-.2m12.5-.4c-2 1.1-2.2-1.2 0 0M171 243c-.8 1.2-3.4.6-4 2.2q3-.7 4.8-2.5c-.4-.3-1-2-1.7-1.1q.7.5.8 1.4zm-18.1.9c.4.3.9.8 1.9.5v-2.2c-.6-.2-.7-.6-1.4-.6-.3.6-.2 1.6-.5 2.3m-10.5-1c1 .4 1.5 1 2.6 1.2 0-1.7-1.5-1.6-2.3-2.3 0 .6-.4.6-.3 1.2m100.6.3q0-1.5-1.4-1.4c0 1 1 1 1.4 1.4m-74.2 2.9q3.9-1.7 8.4-2.6c2.9-.4 6.8.5 9.4-1.1-7.1-.2-13.8-.3-17.8 3.7m24.3-3.8c-1.7 1-2-1.2 0 0m-37 3.8c-.2-1.6.3-2.6.5-3.7h-.8c.5 1.3-1.1 3.2.3 3.7m26.8 4.2c1.8-.2 2.9-1 4.8-1.2.5-2.1 3-5 2-6.7q-4.1 3.3-6.8 7.9m-37.1-6.5c.8.5 1.1 1.5 2.5 1.3.8-2.2-2.3-3.5-2.5-1.3m74.5-.6c-2 5.5.3 13 3.5 16.1-2.5-3.5-4-11.6-2-16.4.3 0 1.5 1.2 1.4 0-.7-.7-2.4 0-2.9.2zM157 245c1.1.2.3-1.6 1.3-1.4.5 1.4-1.6 2.8 0 3.5.5-1.2.6-2.8.8-4-1.8-.6-3 .8-2.3 2zm88.8-.9c-.3-.6-1.1 0-2.3-.8.3 2 .3 2-.8 2.9 1.6-1.2 3 .9 4-.8-1 .4-2.4.2-2.5-.8q.7.1.8.5c.4-.2 0-1 .8-.8zm-86 3.4c-.3-1.2 1.3-3 0-4 0 1.2-1.2 3.3 0 4m-15-1.3v-1.4c-1.3.2-1.2-1-2.5-.8 0 1.6 1.6 1.6 2.5 2.3zm4.5.2c.7.3 2 .1 2.5.6 0-1 .2-2.6-.2-3.1h-1.7q-.7.9-.6 2.5m21 .3c4.5-2 10.6-2 14.7-2.5-3.8-.6-11 0-14.8 2.5m15.4-1.7c.8 0 1-.7 1.3-1.1q-1.3 0-1.3 1.1m9-.9q-.6-.4-1.7-.2c-.4.9 1.7.7 1.7.2m14.5 4c2-1 2.3-3.4 5.2-3.4-1.6-.5-2.2-1-4-.6 0 1.3-2 2.2-1.4 3q.8-.7 1.7-1.3l.2.6c-.5.6-1.5.8-1.7 1.7m-48.5-.6q2 .5 3.7 1.2c.7-.8.7-2.4 1.1-3.5-1.5 0-.8 1.9-1.4 2.6-1.4-.4 1.2-2.9-.2-3.1-.6.7-.2 2.3-1.1 2.5-.1-1 1-2.5 0-2.9-.5.8-.4 2.2-1.2 2.5-.8-1 .4-1.7.3-2.8h-.8a7 7 0 0 0-.3 3.4zm58.3-2.8c0 .7-1.3 1.7-.2 2 0-.8 1-3.3.2-2m3 1.7c1.2-.4 2.2.8 3 0-.6-.8-2.9 0-2.9-1.4h1.2c0-.8-.6-.7-1.2-.8-.2.6-.5 1.8-.2 2.3zm38.7 10.2c-1.3-2.1-3.6-2.8-5.2-4.6-2-2.4-2.8-5.6-5.1-7.9q-.7 0-.8.2c3 4.7 5.2 10.2 11 12.1zm-3.7-10.4q-.2-1.3-1.1-2 .1 1.4 1.1 2m-108.4.5c-.6-1.1-2-1.3-2.9-2.3 0 1.9 1.3 2.1 2.9 2.3m49.9 7q1.8-1.6 1.3-5.4c-1.5-2.5-4.9-3-7.9-4q-.6.8-1.1 1.7c1 .5 1.3-1.2 1.7-.2 0 .7-1 .6-.8 1.4.7.8 2.3.7 2.9 1.7-1.3.5-2.9-1-4.6-1.1-.1.8-1.1.8-1.4 1.3 1 0 1.6.5 2.5.6.3-1-1.3-.3-1.1-1.4 1.3.5 3 .6 3.4 2-.7 0-1.6-1.3-2 0 1.8 1 3 2.6 3 5.7l-2.6 1.7v2c.7-1.3 2-3 3.5-1.2a6 6 0 0 0 1.9-3c-.3-.4-1-2-.2-2.4.8 0 .5 1.2.5 2 1 .2.4-1 1.2-.3-1 2.8-2.9 4.4-5.2 5.8q.9.1 1.2 1.1c-3.1.2-6.4-.7-4.8-4.8-1.6 0-1.5 2.9-1.4 3.4.5 2.3 3.7 2.9 6 3.1 1.6-1.4 1.6-4.2 3.4-5.4 0 1.5-1.8 2.8-1.2 4 1-2.6 3.7-4.6 2-8.2zm18-8.5c.1-.6 1.6 0 1.4-.8-.8-.2-2.3.4-1.4.8m-8.8 8.8c1 .6 1.2 1.9 2.9 1.8-3.1-1-2.4-6-3.1-8.3.7.5.6 1.9 1.7 2q-.4-2-2-2.9c.3-.7.6-2-.5-2-.5 4 1.7 5.3 1.1 9.4zm-54.6-6.2c.8.4 1.7.8 2.2 0-.2-1-1.2-1.4-.5-2.6-1 .3-.8-.4-1.7-.2-.7.8 0 1.7 0 2.9zm106.8 6.5c-1.7-3.7-5.7-5-6.8-9.4h-.8c2 3.7 3.8 7.5 7.7 9.4zm-1-3.1q-2.7-3-5-6.2 1.1 4.4 5 6.2m-.5-2.3c-.5-1.1-.5-1.5-.6-2.5-.8-.2-.7.3-1.4.2q-.4-1.2-1.3-1.7 1 2.7 3.4 4zm-86.4-1.6c2.2-.2 4.7-1.3 7.4-1.4 1.7 0 3.8.8 4.8-.5-4 0-9.5 0-12.2 1.9m43.2-1c1.2 0 2.6.3 2.8-.7-1.4.4-1.7 0-2.8-.2v1.1zm34.7 1.5c-.8-.7-2.1-.7-2-2.3-.8-.3-.8.5-1.3.8.6.2 1-.8 1.2 0-1.5 1 0 3.2-1.4 4.5.7 0 .6.6 1.4.3-.2-1 .2-2.4.2-3.5.9 0 .9 1 2 .8 0-1.1 1.2-.9.5-1.9q-1.4.1-1.1-1.4-1.2 0-.8 1.2c.6 0 2.2.7 1.3 1.3zm-105-.5c-.3-1-1.6-1.1-2.5-1.7 0 1.4 1.3 2.5 2.5 1.7m21 1.6c.5-.7.5-3 1.7-2.3-.6.7-1 1.4-.8 2.9 1.4-.3.9-2.3 1.7-3.1-1 0-1.4-.7-2.3-.8-.2.7-1.4 3.2-.2 3.4zm40.7 14.5c1.7-5.7.3-14-1.4-17.8.1 4.9 2.9 11.8 1.4 17.8m6.3-6.8c.7-.4 1-1.3 2-1.4-1 5.6.1 10.7 4.1 13.2-.4.6-.9-.3-1.1.6 2.4 1.7 4.7 0 5.2-1.7 1-4.2-6-8.2-7.1-11.3.6 3.8 2.8 6 4.8 8.4-2.7-1.1-4-3.4-4.8-6.1.2 4.3 2.6 6.6 4.8 9-4.3-1.6-6-7.4-5.4-12.1-.8-.2-1.2-1-2.3-.8-.3.9 1 .2.6 1.1-5.3-.5-3.8-8.5.2-8.4q-.7 0-.6-.8.7 0 .8-.3c-6 0-6 9.2-1.3 10.8zm-64.3-8.3c-.3-1.3-2.2-1.1-2.9-2.3-1 1.6 1.4 3.2 2.9 2.3m91.4-2.1c.3 1.9.3 4.2 1.7 5.1.7-2.3 3.4.5 4-1.4-4.1 1.2-4.1-1.7-5.7-3.6zm6.3.5c-.8.4-1 0-1.7-.2 0 1 1.9 1.6 1.7.2m-72.5 1c3-.4 6.5-.4 9.6-.7-3-.6-7.6-.4-9.6.8m40.8 0c1.2-.2 1.7.4 3 .2v-1.2a4 4 0 0 1-3-.2zm28.8 1.1q-.4 0-.6.2h1.4c0-1-1.5-.8-1.4-2 1.2-.3.7.9 1.4.9.1-1.4-.9-1.5-2.3-1.4q.1 1.8 1.4 2.3zm-74.7.6c.5-.7.5-1.9.8-2.5-1.1-.3-1.8 2.5-.8 2.5m64.5 1.1c-3.6-.6-8.3-5.1-11.6-2.5 5.2.5 9.8 1.7 11.9 5.4.4-1.3 0-1.7-.3-2.9m-81-2.5c-.4-.8-1.7-.8-2.8-.8-.2 1.5 2.5 2.4 2.9.8m17 2h1.1c0-1 .2-2 1.2-2 0 1-1 .8-.6 2q1.1.6 2.5 1 .3-.8.6-2.4h-.6q0-.4-.2-.3c-.6.4-.2 1.8-1.1 1.8-.3-1 .4-1.2.2-2-1 0-1.3-.6-2-.8q-.8 1.2-1.1 2.9zm6.7-1.8c2.2 1 7.4 2.3 7.4-.5-1.9.8-5.6-.3-7.4.5m-17.6 1.2c1.2-.7 2 0 2.9-.8-1.6-.4-2.2 0-3.4-.6-.3 1 .8.6.5 1.4m55.3-1.4H212c-.5 1 1.8 1 1.4 0m30.9.6c.6.4 1.3.7 1.7-.3-.4-.3-1.7-.4-1.7.3m-30.4 0c0 1.5 2.6.4 3.5 1.1.2-1.7-2.8-1.2-3.5-1.1m11.1 10.7c1.5-.6.7-3.2 1.4-4.6 1.4-.2 4-.6 5.7-.5-.5-4.8-6.3-4.7-10.7-5.7.2 4 .8 8.6 3.6 10.7zm-50-7.9c.2-.5-.5-2 .5-1.7v2.3q1.4-.1 2.3.2c.6-.4.7-1.5.8-2.3-1.3 0-.2 1.9-1.4 1.8-.3-1 .8-1.6 0-2-.4.5 0 1.8-1.1 1.7-.2-1 .6-1 .6-2q-1.2-.2-2.3-.5c-.3.7-.8 2.8.5 2.5m31.2 9c0-4.6-.4-8.6-2-11.6 1.3 3.2 1 9 2 11.7m43.9-10.2c0-1.2-.7-1.4-1.7-1.4-.3 1.4 1.1 1 1.7 1.4m-37.4 3.9c-.7-1.9 2-.3 2.5 0-.6-1.6-1.5-2.9-1.4-5.2-.9.5-1 0-2.3 0-1.1 2.2-1 4 1.2 5.2m91.1-4.8c2-.3 3.7 1.2 5.2.5-1-.4-4.6-1.3-5.2-.5m-143.3 0c-1.6 2-5.2 2-7 3.6-.5 1 .4 1.7-.6 2.3 0-.4 0-1-.6-.8 0 2.3 1.8.8 3.6 1.2.3-1-1.3 0-1.9-.8 1.4-.7 2.6.2 4.2-.3.8-2.5 3.6-1.7 4.6-3.6-1-.1-1.1-1.3-2.3-1.4zm6.5.9c-1.2-.2-2.7 0-4-.8 0 2.2 3 1.6 4 .8m67.4 2.3c1.1-.1 1.4-1.3 1.7-2.3-.6 0-.2-1-.8-.8q-.1 1.4-.8 3zm-17-2q-1.1-.7-3-.7c0 1 3 1.5 3 .6m30.4.6c1 0 1.6.7 2.5.8.2-1.6-1.7-1-2.3-2 0 .6-.3.6-.2 1.2m-68.5.9c0-.5 1.1-1.4.2-1.7-.2.3-1.1 1.2-.2 1.7m3.3-1c.2 1.3-.5 1.7-.8 2.4 1.1.9 4 0 3 3 1.6 0 1.7 1.4 2.6 2 .3-2 3.9-5 1.4-8.2-2.7-.3-3.7 2.6-6.2.8zm9.1 5.2q-.3 0-.2-.2c.6-.8 1.2-5-.2-4.2.6 1.5.8 3.7-.8 4.2 1.1-1.4.8-5.5-.8-5.4 1.2 1.2.9 4.1.2 5.7q1 0 .8.8c1.2 0 1.6-1 2.5-1.3 0-1.2.3-2.5-.5-2.9 0 1.5 0 2.8-.8 3.4zm-25.2-4.5c.4-.5 2 .3 2.3-.8-.7-.6-3 .2-2.3.8m13 1.1c1.6.2.8-1.8 1.7-2.3-1.2 0-1.2 1.4-1.7 2.3m2 .3c-.4-.9 1.4-1.9 0-2.2 0 .9-1.2 1.9 0 2.2m71-.9c2.5 1.6 5.5 5 8.9 6.5-2.9-2.7-6.5-4.8-9-7.8.4.6 0 1.2.2 1.3m-84 0q1.7.6 2.4-.8-1.6-.4-2.5.8m75.3.6q1.7 0 1.4-1.7c-1 .1-1.6.4-1.4 1.7m-34.2 1.1c-1 0-.7-2.6-1.2-2.2-.2 1.2.6 2.7 1.2 2.2m5.4-1.3c1.1-.6 2.5.7 3-.6-.8-.6-2.5-.1-3.4-.6 0 .6.4.6.2 1.2zm30.7.2c.6 0 .6.3 1.2.2.8-.8 0-1.6-.8-1.7q-.4.6-.3 1.4zm2 .3c1.6-.2 2 .6 3.2.6-.4-1.4-2.2-1.2-3.1-2zM164 271.3c-1-.7-1-2.4-1.1-4-2.9-1.3-7.3-.8-9.6-2.5q5.4.6 10.5 2c0-1.3-2.2-.2-2-1.4 3.3.3 6 1.7 8.5.5.4 1 .8 1 1.4 1.2-.8 1.5-1.2-.8-2.8-.3-.2 1 1.3.6.5 1.4-.7-.6-2-.8-2 .6 3.9 1.1 6.8-1.5 7.2-5.4-2.2-.7-3.1-2.5-5.4-3 0-.6 1.3 0 1.4-.6 1.3.9 1.8 2.6 4.2 2.5-1.4-2.7-5-4.1-8.2-4 .5-2.3-2.6-3.1-4-4.3 2.2-.6 3.4 2.2 5.1 3.1-.3-1.6-1.8-2.1-2.3-3.6 1.9.8 2.3 3 3.7 4.2.3-1.5-1.7-2-.8-3 1.4.8 1.1 3.3 2.8 4 0-1.5-1.9-2.3-1.1-3.5 1.3 1.6 2 5.1 4.2 4.8a10 10 0 0 1-2.8-4.8c-4-4.2-8.8-3.3-12.2-.2-1.9 1.7-4 2.7-5.3 4.5-.6-.2-2.5.3-4 0-.5 1-.6 2-1.2 2.9 1.9 0 1.3 2.3 3.1 2.3-.2.3-1 0-.8.8.2.2 1 1.5 1.4.5-.6-1.1-.7-3.2-2.3-4 3.9 1.3 8.7 2.1 12.1 2.9-2.6.7-6.7-.8-10-1.4.8 1 .3 1.7.6 2.9 2.3 1.1 12.3.2 8.5 4.6-.2-1 .5-1.9 0-2.3-1.1-.8-4.1-.6-6.2-1.2.7 2.2 4 .6 5.7 1.7q-.2 1-1.1.8-1.3-.9-3.7-.8c0 1.2 2.2.4 2.6 1.2-.5 1-2-.6-1.8.6 1 .6 1.8-.4 2.6-.6.5 1.8 3.7.6 4.5 1.1zm55.9-18.4q0-1.1-1.2-.8c-.2 1 .4 1 1.2.8m-48-.2q0-.5-.5-.3c-.1.7-1.6 0-1.4.8 2.6 1.8 3 5.4 5.4 7.4-.6-2.2-2.9-5-3.5-8m4.3 6.6c-.6-2.6-2.4-4-2.9-6.8h-.8c1 2.6 1.4 5.6 3.7 6.8m.5-1.5c0-2.2-1.6-3-1.9-5.1q-.6 0-.8.2c1.1 1.4 1.3 3.8 2.9 4.8zM262 260a37 37 0 0 1-9.4-7.3c1.8 3.5 6 6.1 9.4 7.3m-84.4-3.7c-.5-1.2-.7-2.6-2-3 .5 1.2.8 2.6 2 3m0-1.5q1 0 1.1-1.1-1 0-1.7-.6c-.4 1 .7.8.6 1.7m40.7-1.1c-.4-.7-1.5-.6-2.5-.6-.7 1.5 2.5 1.6 2.5.6M205 265.6c.7-4.1 0-11.1-4-12.1q3.1 5 4 12m15.3-10.7c0-.8-.3-1.6-1.3-1.3 0 1 .8 1.1 1.3 1.3m23.3-.5c2.5 0 6.5.5 8.2 1.1-1.4-1.4-6.4-2.8-8.2-1.1m-44 3.2c-2.5 2.8-.4 6.4 0 10.5q.6 3.8.3 7c-.2 1.7-1.3 3.2-.6 4.9 3.3-7.1 2.3-17.2.8-25.7-.4 0-.4-.4-.8-.3-.5.8.6 2 .2 3.7zm5-2c.5-.7 0-1.8-.7-1.8q0 1 .8 1.7m27.8-.6c1.7-.3 1.7 1 3 .8 0-1-.4-2-1.7-1.9 0 1.3-1.5-.3-1.3 1.1m4.2 0v-1.1c-.6 0-.6.3-.8.6 0-.1-.2-.4-.2 0 .5 0 .3.8 1.1.5zm-94.6.4c.7.6 2 .2 2-.8q-1.4 0-2 .8m39.1 20.3c-1.4-3.2-4.8-5.7-5.1-9q3 5.3 7 10.2c-1.2-4.4-5.7-7-5.7-11.7a53 53 0 0 0 6.8 11.3c-.5-3.5-5.7-7.6-4.8-11.6q2 6.1 6 10.5c-.6-3-4.8-6.3-4.6-10 1.7 2.9 3 7.8 6 8.5a23 23 0 0 1-4.7-8.5c2 2.2 2.3 6.1 5.2 7.4-.4-2-3.1-4-3.5-6.8 1.8 1.6 2.1 4.6 4.3 5.7 1-2.1-3.1-3-2-5.3.8 1.1 1.5 3.6 3.1 3 .3-1.7-2.5-1.8-1.3-3.4.6.5.5 1.8 1.7 2 .8-.8 1-2.2 1.7-3.1q-6 1-7.3-3.7c-1-2.7 0-6.8-4-6.7-3.2 3.9-4.5 9.7-6.8 14.4 1.3 1 1.5 3.3 3.1 4-.5-1.4-2.3-2.9-2-4 1.9 1.3 2.8 5.2 4.9 5.3-1.4-1.9-4-4-4-6.5 1.8 2.7 4 6.3 5.9 8zm62.4-15.9c-1.3-.9.2-4.5-1.2-5.3 0 2 0 5.3 1.2 5.3m-27.3-4.4c.4 0 .4.6.6.8 1-.4 1 0 2 0 0-1.3-2.5-1.7-2.6-.8m27.3.6 8.2.8c-2-1.2-6-2.4-8.2-.8m25.3 20.9c1.8 1.4 3.6 3.4 5.8 3.4-6.3-5-10.1-12.6-18.5-15.5 4 0 7 3.8 10.2 5.7-2-3.8-7-4.7-10-7.7q5 2 8.5 5.2c.3-1-.4-1.2-.2-2-3.5-.3-6.4-3.5-10-4.8 3.4 0 6 3.1 9.1 4.2-2-3-6.3-3.6-9-5.9 3.4.2 5.7 3.2 8.2 3.4-2.2-2.6-6.6-3-9.4-5.1 1.8-.2 2.4.8 3.7 1.1q-2.2-2-4.6-3.6c-.7 2 0 7.6 0 9.6 3 4.7 3 10.8 7 14.4 2.3 2 4.9 2.7 6.3 5.4-.6 0-.6-.4-1.2-.3a8 8 0 0 1 .8 4.3c.3.6 2-.3 1.7.8-.2.8-.8-.5-1.1.2.3 2 1.7 3 1.7 5.4 2-1.9 1.7-5.5-.2-7.1 1.5-1.2 3.2-2.2 4-4-.5-1-1.4-3-.8-4 .4.9 1.4 1.6 2.3.5-1.4 0-1.4-1.2-2.5-1.3-.2 1.1-1.5 1-1.4 2.3.2.6 1.6.3 1.4 1.3 0 .8-.7 1-1.2 1.4-1.6-1.4-2.5-3.5-4-5.1q.3-1 1.4-.8c-1.2 1.3.6 1.9 1.4 2.8.4-.8.6-1.7 1.7-2 0-1-1.6-.4-1.2-1.9-1.7-.3-1.7-.4-3.4 0-1.3-.9-2-2.3-3.7-2.8.7.9 1.4 3.3.8 4.5-2.1.3-2.6-2.1-2-4-1 0-1.3.7-2.4.6q.6-1 2.3-1.4c-.7-1.5-2.6-2-4-2.8 3.9-1.9 9.7 3.5 12.4 5.7zm-31.9-7.3c6.8-1.2 3.5-10.9 1.2-13.3-.8.3-1.2.3-2 0 .4 1.1 2.7.5 2.5 2-2-.4-4-2.3-5.7-2.3 1.4.5 3.2 2 2.9 3.4-1.7-1.6-3.4-4.7-6.8-3.7.4 1.7 3.1 1.2 3.5 2.9-2.3-.4-3.5-1.8-5.4-2.5 0 1.7 2.2 1.8.8 3.4 3.9.5 4.6 4.1 7.7 5.4-3.2.8-5.8-3-7.7-3.5 1.4 3.2 5.6 3.5 8.2 5.4-3.6-.4-6.1-2-8.2-4 1.4 2.8 4 4 6.7 5.4-3.5.6-6.1-3.7-7.8-4.8 2.1 3.2 5.4 7 10.1 6.2M151 257q.7-.2 1.3-.5.1-1-.6-1.2c.2 1.2-.7 1-.8 1.7m57-.8v1.2c3.3 1.5 2.8 6.7 5.3 9-1.1-3.7-2.8-6.7-4-10.5q-1 0-1.3.2zm-58.1 2.5c3 .5 5.5-1 5.7-2.5-2.3 0-3.9 1.4-5.7 2.5m54.4 7.7c-.4-3.5-.8-9-2.9-10 1.6 2.7 1.6 7 3 10m7.8-6.3c-.1-1.4-1-2-1.1-3.4.5 0 .9 1.5 1.3.6-.8-.3-.7-1.2-1.7-1.2-.7 1.6.2 3.3 1.4 4zm7.3-3.6h-2c-.3 1.2 2 .8 2 0m25 4c1.9-.2 5.3 0 6.7 1.3-1.6.5-5-2-6.7-.2a65 65 0 0 0 5.3 16.7c.8 0 2 .2 2-.6-.3-.7-2 .3-1.7-.8.5 0 1.9.5 1.7-.6q-1.6.1-2.5-.5c.2-.5 1.3 0 1.1-.8-.6-.1-2 .4-1.7-.6h2.3c0-1.4-2.3-.5-2.9-1.1.5-.6 2 0 2-1.2-.7-.2-2.1.4-2.3-.2.9-.7 4 0 4.8-1.7-1.2-1-3.2 2.3-5.4.2 1-1.1 3.4 1 3.4-.8-1.1 0-3.2 1-3.6-.2.4-.5 1.5-.3 2.3-.3-.3-1.6-2.1 0-2.9-.8.1-.6 1.6 0 1.4-.8-.3-.6-1.7.8-1.7-.5 0-.7 1.3-.1 1.9-.3 0-.6.5-1 .2-1.9-1.7-.2.4 1.4-1.1 1.4-.6 0-.1-1.2-.2-1.7-1-.3-1.8.8-1.8-.6 2.8-.2 5-.1 6.6 1.4-1.2 0-1.4-.5-2.6-.3 0 .5-1 2 0 1.7.7-1.2 1.9-1 3.1-1.1-.2-1.4-.7-2.5-.5-4.2-1.8-1.3-4.7-1.3-7.1-1.7 2.1-.8 5 0 6.7.5-.4-2.6-4.8-1.5-7-2.3 2.1-1.2 6.2.7 7 0-2-.9-4.9-.9-7.6-1.1-.4.8.2 2.9.5 4zm-53 3c-2.7.2-3.3-2.8-5.4-2.5 1.6-1.7-.3-3.7-1.7-4.2.5 3.9 2 8.3 7.1 6.7m26 5.4c-2.8-2.6-3.2-7.6-4.5-11.9-1 5.7 1 10.8 4.6 12m66.5-10c-.9-1.6-5.1-1.3-6.5-1.6 1.3 1.5 4.6.9 6.5 1.7m-94.3 0c.9 0 .9-1.5.2-1.7.2.9-.4.8-.2 1.7m30.6-1.2c-.5.2-1.8-.3-2 .3.3.8 2 .7 2-.3m21.5 4.5c-.3-1.5 0-3.5-1.1-4.2 0 2 .5 3 1.1 4.2m-49.3-2.9q1.1 0 1.2-1.1-1.4-.2-1.2 1.1m19.6 9.4c-1.3-2-1.8-4.8-4-6 .8 3 2.6 4.9 4 7.2 1.7-3.8-2.2-8-3.4-11.4-1 5.3 4 6.2 3.4 10.2m-64.3-8.2.8.2c0-.4 1-1.5.3-1.7 0 .8-1.4.3-1.2 1.4zm73.7-.6c0 .7-.6.6-.3 1.4.6 0 .6-.4 1.2-.2 0-1-.8-1.3-1.2-2h-1.7c0 1.2 1.2 1.3 2 .8m11.5 2.9c-1.8-.7-2.4-2.8-4.2-3.5.8 1.5 2.5 3.7 4.2 3.5m-26.3 2.8c-.9 1.9-3.9 3.3-4 5.2 2.8-2.4 6-5.9 5.2-11.1q-.7 2.9-1.2 6M224 261c-.1 1.3-1.7 2.9.6 2.9.3-1.2-1-1-.3-1.7.7 0 .6 1 1.4.8.4-1.4.7-1.7 1.4-3.1-1 .3-1.3 1.6-3.1 1.1m-21.3 5c.6-1.3 0-3.7-.6-5 .3 1.5 0 3.6.6 5m-55.8-2.7c1 .5 1.4-2 .2-1.7 0 .7-.4.8-.2 1.7m52.2 9.3c.2.8-.4 2.3.2 2.5v-2.9c-.2-3-.8-7.3-1.7-10.5q0-.3-.6-.2c.3 3.5 1.6 7 2 11zm-52.4-7.7h1.1c0-.7 1.5-2 .3-2 0 1.3-1.7.8-1.4 2m51.6 9.7v2c-.3.9.4 1.6.2.2a38 38 0 0 0-2-13.6q0-.3-.5-.2 1.6 5.3 2.3 11.6m-.6-.9c-1-3.4-.6-8.1-2.9-10.2 1.4 3.6 1.4 7.5 2.9 10.2m-2.3-6c-.6-1-.8-4-2.3-3.4 1 .8 1.5 3.5 2.3 3.5m7 1.1c2-.8 4.2-2.7 3.8-4.8-.3 2.6-2.7 3.1-3.7 4.8m144.9 56.6c-.2-.4-1.4 0-1.4-.6q0-.3-.5-.2c-3.6-6.4-4.6-14.3-6.8-21.8q-2-6.7-4.6-13c-3-9.2-10-14.1-18.6-18.1-2.3-2.4-5.4-4-6.2-7.7-.9-.2-.6.8-1.4.6 0 1.5 2.1 2.6 1.4 4-1-1-1-3-2.5-3.4-3.5 1.9-6 4.9-9 7.3 0 1.1-1.5 3.3-.6 3.4.8.5.6-2.6 1.7-2.9 0 1.8-.7 2.8-1.1 4 2 .4.9-2.2 2.3-2.5 0 2.2-1.3 2.9-1.8 4.6q.5 0 .6.2c1.4-.2 1-2.3 2-2.8.9 1-1.8 3-.3 3.6.7-1.1.7-3 1.7-3.6 0 2-.9 2.6-1.1 4.2 2 .1.8-3 2.5-3 0 1.4-1.6 2.7-.8 4 .8-1 .8-2.8 1.7-3.7.6 1.2-.5 3-1.1 4.2.9.7.8 2.4 2.3 2.5q.1-1.3.5-2c-.5-.2-2 1-1.9-1 1.6-.2 1.1-4.7 2.5-6 .2.4 1 .4 1.4.5.8-.4.8-1.9 1.7-2.2-.3 1.7-.7 3.2-3 2.8.3 1-1 1.7 0 2.3 2-1.2 2.8-3.7 4.7-5.1.2 4.2-6.6 4.4-5.4 7.9 1-.4.3-2.2 1.8-2 .3 1-1.4 1.8 0 2 .9-.7.4-2.6 1.3-3.1.7.9-.2 2-.5 2.8 1.8.4.9-2.1 1.7-2.8 1.1.3-.4 1.6 0 2.8.4.1 1.5-.3 1.3.3.6 1.2-1.3 2.2 0 2.5 1 .3.4-3.2 1.8-3.5.5 1.5-1.4 3.2 0 3.7.6-.7.2-2.6 1.3-2.9.3 1.4-.4 1.9-.5 2.9 1.2.3.5-1.1 1.7-.8-.8 4.5-3.1 7.5-4.3 11.7 3-2.2 3.5-6.8 5.2-10.2.7 4.2-4.4 8.1-3.4 11.6 1.7-2.7 2.5-6.6 4.5-9-.6 3.8-2.8 6.3-4 9.6 3.1-1.5 3-6.2 5.2-8.4 0 4.3-4.4 7.2-3.7 10.5 2.7-2 2.8-6.3 5.2-8.5-1 3.7-2.9 6.2-4 9.6 3.2-1.4 3-6.3 5.3-8.4-.5 3.8-4.2 7.2-3.6 10.1 2.8-1.6 2.8-6 4.8-8.4.9 3.5-5.4 8-2.5 10 .9-3 2-6 4-8-.6 3.3-3.5 5.9-3.5 8.8 2.1-2 3-5 4.6-7.3-.3 3.8-3 5.2-3.6 8.5 2.4-.4 3-4.6 4.8-6.5-.6 3.2-2.6 5-3.7 7.6.6 0 .3.8 1.1.6 1.5-2 2.3-4.6 3.7-6.5-.1 3.3-3.4 4.8-2.9 7.9 2.2-1.5 2.4-4.7 4-6.8.3 2.9-2.7 4.8-2.8 8.2 2.2-1 2.3-4 4-5.3-.5 2.7-2.2 4-3.1 6.1.6 0 .6.8 1.1.8 1.3-1.6 1.8-4 3.5-5.3 0 2.4-3.8 4.7-1.7 6.5.9-1.4 1.1-3.4 2.5-4.2-.1 2.1-2.5 3.5-2 5.3 1.7-.4 1.3-3 2.9-3.6 0 2.1-2.9 3.6-1.4 5.3 1-1 1.3-2.8 2.3-4 .2 2.7-2.4 3.6-1.7 5.8 1.6-.3 1-2.7 2.3-3.1.4 2.4-2.8 3.6-1.2 5.4.8-.7.8-2.2 1.8-3 .5 2.6-2.1 3.3-1.4 4.9 1.1 0 1.1-2.6 2-2 0 1.9-2 2.8-1.4 4 1.2 0 .5-2 1.9-1.9-.2 1.6-1.4 2.2-1.7 3.7 1.4 0 .9-2 2-2.3 0 2-1.4 2.2-1.2 4.2 1.1 0 .3-2 1.7-1.7 0 1.3-1.1 1.5-1.1 2.9 1.8.6.3-2.2 1.9-1.8.1 1.4-1.8 2.3-.6 3.1.6-.3.3-1.7 1.2-1.7.2 1.3-1.3 1.7-.6 2.5 1.1.1 0-2 1.4-1.7-.6 1.7-1 4.2 1.7 4 1.8-2-.6-3.2 1.1-5.1.3.5-.8.9 0 1.1.5-.3.4-1.1 1.2-1.1 0 1.1-1 1.1-1.2 2.3 2-2.1 3.7-3.1 6-4.3q-1 .1-.8-.5zm-101.9-51.8q-2-4.4-3.4-9.4c-.6 3.8 1.7 7 3.4 9.4m-54.3-6.7c.9 1.8 2.8 2.6 4 4.2q-1 .3-2.5.2c.2 1.5 2.4 2.5 1.9 3.7-1.4-.6-1.6-2.4-2.9-3 .3 1.2 1.4 1.5 1.4 3-1.2-.8-2.6-3.3-1.1-4.6-1 0-1-.8-2-.8q-1.3 2-2.3 4.2c1 5 8 3.7 7.7 10q1.8.6 3 1.4c-.3.4-.3 1.1-.7 1.3q-1.6-1.6-4.2-2.5c-.7-2.3-1.5-4.5-3.5-5.7-.2 1.5 1.3 1.2 1.4 2.3-3.4 0-2.6-4.3-5.1-5.4.9 2.7 3.6 10.4 5.7 12.7 2.5 3 7 .8 7.3-2.5.2-2.4-1.3-6.3-2-9.6a26 26 0 0 0-5.1-11.3c-.2.9-1 1.3-1.1 2.3zm19.2 3.9c-1.3-1.2-1.6-3.4-3.1-4.3-.6 2.4-3.9 3-4.8 5.4-1.2 2.9.1 6.5-2.5 8.5 1.2 1 1.3 3.2 1.7 5.1 2.9-1.1 6.5-3.4 6.7-6.5s-2.5-5.4-3.4-8.2c2.5 1.3 2.8 5 4.2 7.3 0-3.2-2.2-5.9-2.5-8q2.4 2.3 2.5 6.6c2.4-2.9-1.9-6.4-2.2-8.8q2.6 2.7 3.6 6.7c1-1.2-1-2.7-.2-3.6.9-.1.2 1.2.8 1.4.3-2.8-1.7-5.6-3.1-7.7-1 2.5 2.9 3.9 2.3 6zm-61.4-5.4c-.4.9 1.5.2 1.7 0-.6-.6-1 0-1.7 0m-2.3.3c-.3 1 2.2.7 1.7-.2q-1.2 0-1.7.2m104 .6c.6-.2 2.3.6 2.2-.6-.8 0-2.1-.3-2.3.6m-101.6.8c.3.7 1.8 0 2.5.2 0-1.1-2.5-1.6-2.5-.2m17.2 1q1-.4 1.4-1.2-1.4-.1-2.3-.6c0 1 1 .7.8 1.7zm-11.6 0q-1-1.2-2.5-1.5c0 1.2 1.9 1.9 2.5 1.4m-8 0c1.1 1.4.5 4 2.4 4.8-.4-2-1.5-2.2-.6-4.2q-1.2-.1-1.4-.8 1 0 1.4.2c.3-1.7-1.8-1.1-1.7 0m17.2.6c0-1 1.5-.4 1.4-1.4-.7.1-.6-.6-1.4-.2-.2.2-.6 1.6 0 1.7zm84.1-1.2q.6.4 1.4.3c.2-1-1.4-1.2-1.4-.3m2 .3c.8.2 3.3.9 3.2-.6-1-.3-1.4-.2-2.9-.2zm-5.2 8q1.6.2 2.3-.6c0-.8-.7-1-.6-1.7-1-.2-.2 1.2-1.1 1.1-2.4-1.5-2.6-5.1-4.6-7-.7 3.6 2.7 5.5 4 8.2m-51.2-5.4a10 10 0 0 1-2.9-2.5c-.8 1.4 1.5 3.3 2.9 2.5m19.2-.3q1.5-.4 1.1-2.3c-1.2 0-.5 1.7-1.1 2.3m3.2-.3c.6-.8-1-1.5-1.4-2q.3 1.6 1.4 2m-67.1-1.1c.8.6 2.7 0 3.6.6.4-1.5-3.3-1.6-3.6-.6m96.3.8c0-1-.4-1.2-.8-1.4 0 .7 0 1.5.8 1.4m7.5-.6q-.3-.2-.8-.2c0 .8.6.7 1.2.8 0-.4 1.1-1 .2-1.4q0 .7-.6.8m-89.2 1.2c.6 0 .3.8 1.1.5.4-.3 1-2 1.8-.8-.3.5-1.2.4-.8 1.4 4-.8-1.4-4.8-2-1.1zm-8.1-.8q-1-.4-2-.6c-.3 1 1.8 1.1 2 .6m19 2c-.8-.8-1-2-2-2.6-1 1.2 1.5 2.7 2 2.5m-20-.8c-1.3-.6-4.2-1-5.6-.6 1.2 1.6 5.8 1.3 7.3.8-.4-1.3-.5-.2-1.7-.2zm14-.3c4 .5 1.3-1.3 0 0m51.3.3c-1.3.5-2.4-.8-3.1 0 1.1.2 2.4 1.5 3 0m26.4.8c-.1-.6 0-1.3-.8-1.1-.6.5-.1 1.3.8 1.1m5.3.6c1.6.2 2.1-.8 2.9-1.4-1.5 0-2.2.7-2.9 1.4m-78.6-.4c-.7-1.5-2.6-.2-4.3-.8.4 1.4 2.8.7 4.3.8m111.8.6c1.3-.3 2.4 1 2.9-.2q-1.9 0-2.9-1.2zm-69.6.6q-.2-1.8-2.3-1.7c.2 1.1 1.7.9 2.3 1.7m-58.1-.3c-1.4-1.4-5-.4-7.7-1 1.4 1.4 6.4 1 7.7 1m6.7-.3c-1.6-.5-4.3-.8-6.2-.6 2 0 5.3 1.4 6.2.6m.6 1c1.1.7 2.5-.2 2.8-1.2-.8.3-1.2 0-2-.3 0 .7-1 .6-.7 1.4zm5.7-.7c.7.6 4.1 0 4.8 0-1-.4-3.8-.4-4.8 0m80.4.8h1.4q0-.4.2-.8c-1-.2-1.5-.3-1.7.8zm-87.7.4c0-1.5-2.5-.5-3.5-1.2.3 1.3 2.6.6 3.5 1.2m53 1.4q-.4-2.3-3-2.6c.8 1.2 2 1.6 3 2.6m36.6-1.4q.5 0 .6.2 1.3 0 1.2-1.4-1.7 0-1.8 1.2m-95.3 0c-2-.7-5-.5-7.1-.8.7 1.2 4.8 1.4 7 .8m60.7.8c.4-1.3-1-2.3-1.7-1.4.6.4.8 1.4 1.7 1.4m36.8-.2q1-.2 1.1-1.4h-.8c.2.7-.5.6-.2 1.4zm-79.6 0c.7-.3 2 .3 2.3-.3-1-.4-2-1.3-2.3.3m118.6 2.2c1.5 0 2.2-2.4 1.7-3.4-.6 1.2-1.4 2-1.7 3.4m1.5.8c1.1-.4 2.6-3.3 1.4-4.2 0 1.7-2 2.9-1.4 4.2m-125.5-3c.3-.7 2.2.8 2-.8-1-.2-3 0-2 .8m2.5-.4c1.2-.3 2.2 1 2.3-.6-.8 0-2.1-.3-2.3.6m44 2.3q-1.7-1.5-3.7-2.9c.5 1.5 2.6 2.8 3.7 3m73.8-2.4 1.8.8q.4-.6.8-1.4c-1 0-2.3 0-2.6.6m2.6 1.7c1.1 0 1.3-1.2 1.7-2.3-1.3 0-2.2 1.5-1.7 2.3m-128.6-1.7c-2 .4-3.7-.2-6-.2.7 1 5.4 1.8 6 .2m.6 1.7 2 1.2c-.3-1.3-1.7-1.3-.9-2.9-.4.1-1.5-.3-1.4.2.6 0 .2 1 .3 1.4zm111 4c.4-1.8 3-4.3 2-5.7-.5 1.8-3 4.3-2 5.7m-124.9-4.2c1-.6 2.3.3 2.6-.6-.5-.3-2-1-2.6-.2.5 0 .3.6 0 .8m3.5.6c2.4-1.5 5.6.2 8.2.2-2.2-1.8-5.4-1.3-8.5-1.7-.2.8.4.7.3 1.4zm57.7-1q2 1.6 4.3 3c-.8-1.3-3.5-3.6-4.3-3m-43 1c1.2 0 2 0 2-1.2-1.2 0-2 0-2 1.2m2.2 0c1.6-.3 2.4.3 2.9-1.2-1.4 0-2.9-.2-2.9 1.2m2.3.8c-.5-.5-3.1-.7-2.9.5 1.2 0 2.7.9 2.9-.5m10.7 1.4c-1.3-1.5-4-1.9-5.3-3.5-1.9 1-4.3-1.2-4.6 1.2 1.4.2 3.8-.6 4 .8-2.2.3-4.4-1-4.8.8 1.7 0 3.9-.4 4.6.8-2.3.3-5.6-1.3-6 .5 1 0 4.2 0 5.4.6-.6 1.4-4.2-1.1-5.2.6 1.3.9 4.7-.4 5.2 1.4-1.7 0-5.2-1.6-5.7.5.7.8.9-.5 1.7-.5 0 1.9 4-.3 4 1.7-1.7 0-2.5-.5-4.2-.3.2.8-.4.7-.3 1.4 1.7.4 4.7-.7 5.2.8-2.3-.3-4.6-.2-6 0q.6.2.6.8c1.8 0 4.6-.8 5.4.8-1.4-.2-4.1-.6-5.4 0 1.1 1 4.2 0 5.1 1.2-1.2.6-3-.5-4.8 0 .6 1.9 3.5.2 4.8 1.1-.5 1.3-3.5 0-4.5.8.5 1.1 3.5 0 4.5.8-.3 1.4-3.6-.3-4 1.1.7 1 3.7-.4 4 .8q-1.6.6-3.4 0c.2 2.1 3.1.4 4.6 1.2-1 1-3 .1-4 .6 0 1.9 3.2 0 3.6.8-.8.3-2 1-2.8.5.6 2 2.7-.3 3.4 1.2-.6.4-1.8.2-2.8.2-.3 2 3.5-.1 3.6 1.4-.3.7-2 0-2.8.2.5 2 4.3-.2 5.3.6-.7.9-2.4.8-4 .8.5 1.6 3.6-.3 4.3.5-3.2 1.2-6.7.7-9.4.6 1.4 1.6 5.6.2 7.6 1.2-1.2.8-4.6.2-7 0 1.7 1.9 6.1.3 8.4 1.1-1.8 1.5-6.3-.2-8.2.6 3.9 1.1 6.5.3 10.5.8-2.2 1.1-6.7.5-9 0 1.3 2.6 7.3-.3 10.2 1.7-2.7.1-5.9-.2-9 0 1.6 2.4 6.9-.4 9.5 1.7-2 .2-5.8-.2-8.8 0 1.4 2.4 8.1-.7 9 2q-4.3-.8-8.4 0c1.2 1.2 8.1-.4 8.5 1.7-2.2 0-6.5-1.5-7.7.2 2.8.7 7.3-.1 9 1.7-3.2.1-5-1.3-8.4-.8 1.2 2.7 6.4-.1 7.9 2.3-2.2 0-5.7-1.3-7.1 0 1.6 1.5 5.1-.1 6.1 1.4-.9.2-3.4-.2-5.1 0 .8 2.1 6.4-.6 6.7 2-1.6-1-4.9-.3-6.7-.9.6 1.8 4.5.2 5.7 1.4-.7 1.2-4.5-1-5.1.8 2 .3 5-.7 6.1 1.1-1.4-.2-5-.8-5.7 0 1.4 1 5.3-.7 5.4 1.4-1.1-.4-3.8-.6-4.8 0 1.4.6 3.5 0 4.2.6.1.9-1.3 0-1.1 1.1.7.6 1.4-.4 2 .2-.3.6-1.6.3-1.8.8l4.6 1.2c1.1-1.2 3-1.5 4.2-2.5-3.3-6.7-7.9-14.8-6.5-23.5-1 0-1.8.1-1.7-.8 1.5.4 1.6 0 2-1.1q-1.9.1-2.4-1.2c1-.2 1.6.7 2.3 0 0-1.9-2.3-1.2-2.5-2.2 1-1.3 2 1.1 2.5.2-.5-.7-.9-2-2.3-1.2.2-.9-1-.8-.2-1.3.5 0 2 .9 2-.3s-2-.5-2-1.7c.8-.3 1.6 1 1.4-.2q.2-.2.2-.8c-.8-.2-2.3.3-2.5-.2.3-.7 1.3-.6 2.3-.6 0-1.3-2.5 0-2.3-1.4 1-.3 1.7.8 2-.2-.2-1.1-2.6 0-2.4-1.4 1.3 0 1.7.5 2-.5-1-.6-2.4 0-2.9-.6 0-1 1.4-.5 2.3-.6-.3-1.2-2.3-.8-2.8-1.1 0-1.3 1.8-.1 2.5-.3 0-1.7-2.4-.8-3.1-1.7.2-1.5 1.8.6 2.3-.2-.7-1-2.3-1-3.5-1.4.4-1.1 1.5 0 2.6-.2-.3-1.4-2.8-.5-2.9-2q1.3.1 2 .6zm34.3-2c-.5-.5-.6-1.4-1.9-1.1.1.6 1.6 1.6 2 1.1m34.1-.2q-.1-1-1.3-.8c-.4 1.1.7.8 1.3.8m25 4.8c1-1 2.7-4.4 2-5.4-.7 1.8-1.8 3.2-2 5.4m-123.4-4.3q-.9-.8-2.3-.8c0 1 2 1.3 2.3.8m.8.3c1.6-.3 3.7 1 4.8-.6q-2.8 0-4.6-.2zm61.5 2.5q-2-2-4.8-3.4a14 14 0 0 0 4.8 3.4m59.7 1c1.1-.7 2.9-3.3 1.7-4.3zm2.5.8c1.5-.6 3.6-3.3 2-5.1q-1.1 2.4-2 5.1m-110.1-3.7h1.4v-.5c-.3-.7-1.4 0-1.4.5m-8.8-.3c.2.8 2.5.8 2.8 0-.3-.6-2.4-.3-2.8 0m4.5.3c1 0 .8 1 1.4.3.2-1-1.4-1.2-1.4-.3m53.8.9q.1-1.7-1.4-1.4c.1.8 1 .9 1.4 1.4m37.4-.3c1 .3 1-.4 1.1-1.1h-.8q0 .7-.2 1.1zm-100 .3c-.5-1-2.1-1-3.4-1.2.1 1.4 2.2.8 3.4 1.2m101.5 2.8c.1-1.5 1.1-3.2.2-4 0 1.3-1.6 3.2-.2 4m-40.5-.2q-2-2.3-5.1-3.5 1.9 2.4 5.1 3.5m-60.4-1.5c.2-.8.8-1 1.2-1.7-1.2-.4-1.9 1.2-1.2 1.7m1.2-.2c1-.3 1.3.3 2.2.2 0-1.8 2.1.3 2.3-1.1-2.3.4-4-1.5-4.5.8zm7.6.2V278c-1.1-.3-1.1 1.3 0 1m4.8-1H168c0 1 1.3 1 1.3 0m16.7 1.7q0-.4.6-.3c-.3-.5-.3-1.2-1.1-1.3-.5.4 0 1.2.5 1.7zm30.3 2.6c-1.3-2-4-2.7-6-4.2 1.3 2.1 4 2.8 6 4.2m1.7-2.9c0-.9-.9-1.1-1.7-1.3 0 1 1.2.9 1.7 1.3m40 2.3c-.4-1.1 1.1-3.2-.3-3.6.3 1.3-1.2 3 .3 3.6m-103.4-2.6c0-1-1.5-.3-2-.8 0 1 1.2.8 2 .8m6.8 0c.8 0 1.2.6 2 .6 0-1.4-1.7-1.9-2-.6m92 2.6c0-.5.3-.5.2-1.1q-1.4 0-2.3-.6c0-.8 1.6.2 1.2-.8q-1.5 0-2.5-.6c.6 1.5 1.1 3.2 3.4 3.1m5.7 2c-.6-1.7 1-4.1-.2-4.8-.4 1.6-.5 4 .2 4.8m-42.8-.4c-2-1.5-4.5-3.7-6.7-4 2 1.3 5.1 4.4 6.7 4m-56-3.6a8 8 0 0 0 3.6 2q.5-.7.3-1.8c-1.4 1-2.9-1-4-.2zm7.3 0c-.2 1 1.4.3 2 .5.2-1.1-1.5-1-2-.5m27.2 4.2c0-1.6-.8-3.8-2.5-4.6 1 1.5 1.2 3.6 2.5 4.6m23.2-3c.3-1.2-.9-1-1.3-1.5 0 1 1 1 1.3 1.4m49.3 13.6c-2.1-5-1.7-12.8-7.3-14.4q-.4 2-.2 4.6-.8 0-1.2-.2c2 2.5 3.7 5.3 6.2 7.3-.5-2.9-.8-6-2-8.3 0 2.2 1.1 4.7.7 6.2-1.2-1.1-.6-5.5-1.4-7-.2 1.9.4 4.4 0 5.6-1.5-.9.4-5.3-1.2-6.1-.2 1.2.4 3.2-.2 4-.6-1.3-.2-4 0-5.4 5.6 1.6 2.6 11.5 6.8 13.8zm-58-13.8c.9 2 4.9 3.4 7 5.1-1.5-2.4-5-4.2-7-5.1m8.7 1.4c0-.8-.9-1-1.3-1.4q.1 1.2 1.3 1.4m56.7.8c.8 0 1.1-1.9.5-2.3-.2.7-.7 1.2-.5 2.3m-108.8-.8h1.1q0-.9-.5-1.2-.3.6-.6 1.2m34.9 3c-.4-1.6-.1-3.8-1.7-4.2.6 1.4.5 3.3 1.7 4.2m53.5-3c.8 0 .7-.6.8-1.2h-.8zm19.2.8c.8 0 1.2-2 .2-2q-.3.8-.2 2m-105.9-1c.4.5 2.6.5 2.3-.6-.7.2-2.4-.6-2.3.5m19.6 1.6c1.3 0 1.3-2.1 0-2.3q-.3 1 0 2.3m68.5-1c1.6.2 1.1-1.1 0-1.1zm16.1-.3c.6 0 .2.9.8.8q.3-.6.2-1.4-1-.1-1.1.6zm4.6 1.9.5-2.5h-.8c-.2.7-.6 2.4.3 2.5m-68.3-.2c2.5-1.7 5.3 2.8 8.2 3.4-2-2.3-5-3.7-7.6-5.4 0 .8-1.3 1.3-.6 2m101.4.8h1.2c0-1 .6-1.4.6-2.3-1.5-.1-1.3 1.4-1.8 2.3m-141.9-1.2c.1 1 1.8.5 2.9.6.3-1.8-2.4-1.6-2.9-.6m139 .4c1 .2 1.1-.5 1.2-1.2q-1.3 0-1.1 1.2m1.4.5c.9 0 1.1-.9 1.3-1.7h-1.1c.2 1-.5.8-.2 1.7m-142.2-.3h1.1c0-.8-.4-.6 0-1.1H166zm89.2-.6c.7 0 .6 1 1.4.8v-1.1c-1 0-1.2-.7-1.4.2zm22 0c.2.5-.3 1.7.3 1.7-.2-1.3 1.3-1 1.4-2-1-.1-.8.6-1.7.3zm-88.6 2.7q.5-1 .6-2.3c-.3 0-.3-.4-.8-.3-.3.5-.6 2.6.2 2.6m69.5-1.2c0-1-.4-1.1-.8-1.4 0 .8-.3 1.9.8 1.4m14.7.2c.7.2 1.5-2 .6-1.7 0 .8-.7 1-.6 1.7m-66.3-.5h1.1c.3-1.2-1.3-1.2-1.1 0m11.9.5q-.2-1.2-1.4-1.3-.1 1.6 1.4 1.3m56.1 1.5c-.4-1.1 1.2-2.6-.2-2.8.2 1.3-1.4 2.5.2 2.8m-58.3 1.7a24 24 0 0 0-6.7-4.2c1.3 1.5 4 3.2 6.7 4.2m63.1-2c0-.7.5-1 .6-1.4-.6 0-.3-.8-1.1-.6-.8.6-.7 2.1.5 2m27.1-.2c.2-.6.7-.8.6-1.8-.9 0-1.5 1.6-.6 1.8m-141.2-1.2v.8a16 16 0 0 1 6.2 0c-.6-1.7-4.3-1-6.2-.8m110.4 2.9.5-2.9q-.3-.2-.8-.2c.5 1.7-1.3 2.5.3 3m-6.8.3c.8 0 .4 1.4 1.4 1.1.9-.8 1.8-3.3 1.7-4.2-.8 1.3-2.2 2-3 3.1m38.1 0c1.3-.3 1.2-1.8 1.4-3h-.8c-.1 1.3-1.2 1.6-.6 3m-117.8.8c-.2-1.5 1.5-3 .2-3.7 0 1.2-2.2 3.1-.2 3.7m15.3-2.7h1.2c.2-1.2-1.4-1.2-1.2 0m103.7 3.6c1.2-.8 2.2-3 1.9-4.6h-.8c-.3 1.5-1.3 2.6-1.1 4.6m-100-3q.2-1.4-1.1-1.2 0 1 1.1 1.1m68.5 2c-.3-1.3 1.4-2.5 0-3.1-.1.8-1.1 2.7 0 3m32.6 3a11 11 0 0 0 2.5-5.8q0-.3-.6-.2c-.4 2-3 4.2-1.9 6m.3.2c.3.6.2 1.4.8 1.7q1.7-3.9 3.1-7.7-.3-.2-.8-.2c-.8 2.3-1 5.1-3 6.2m1.5 2.8c1-2.6 4-6.4 3.1-9-.9 2.8-3.4 6.8-3 9m-39-5.7c0-1 1.4-2.6.2-3 0 1-1.6 2.4-.3 3m-106.4-1.4c1.5-.5 4-.2 6-.2-.8-1.4-5.8-1.8-6 .2m43 0c1.1.3 1.1-1.3 0-1.1zm68.5 2c1.1 0 2-2.5.5-2.9 0 1-1 2-.5 2.9m-88.3 1.5c2 0 1.5-2.3 2-3.7-.4 0-.4-.3-.9-.2.5 2.1-1.1 2.3-1.1 4zm17.5-3.7c-.4 1.1 1.7 1.1 1.7.2-.7-.3-.8-.5-1.7-.2m12.2 0c-.7 0-.8-.5-1.7-.2-.3.9 1.7.7 1.7.2m54.7 2.5c.1-1.1 1.5-2.4 0-2.8.3 1.2-1.4 2.2 0 2.8m-63.7-1.4c.8-.2.6.6 1.1.6 0-.7.6-.6.3-1.4-.4 0-.6-.4-1.2-.2 0 .6-.3.6-.2 1.2zm-43.4.5c1.9-.8 5.4 1 6-.2-1.2-1.3-6.7-1.4-6 .2m41.7-.5v.6q.3 0 .2.2h.6q0-.3.2-.2v-.6q-.3 0-.2-.2h-.6q0 .4-.2.2m4.4 1q0-1-.8-1.3c0 .8 0 1.6.8 1.4m4-.8c.3.2 1.6.7 1.7 0-.5-.1-1.4-1-1.7 0m-17.8 3c0-1 1.5-3 .2-3.4-.4.6-.9 2.7-.2 3.5m75-1.2c1.2.4 2-2.2.8-2.3q-.2 1.4-.8 2.3m-82.9 2c1-.5 2-3.2.6-4-.1 1.9-1.2 3-.6 4m18.4-2.8c0 1 .8 1.3 1.4 1.7 0-1.1 0-2.4-.8-2.5q0 .7-.6.8m7.3 0c.1-.7-1.5-1.1-1.7-.6 1 0 .7 1 1.7.6m59 2c.2-.7 1.3-2.1.5-2.9 0 1-1.8 2.3-.6 2.9m-68.8-1.8h1.1c.3-1.1-1.3-1.1-1.1 0m65.2.6c.4-.4.4-1.6-.6-1.4-.6.6 0 1.3.6 1.4m-99.2 0c-.7-1.6-3.6-.9-5.7-1.1.6 1.7 4.1.4 5.7 1.1m42.6.4c.8-.5-.5-1.8-.8-.8.5 0 .2.9.8.8m-17 1.9c-.9-1 .6-2.4-.7-2.9-.3.6-.3 2.7.6 2.9m78.1 0q1.3-.6 1.2-2.9h-.8c0 1.2-1 2-.3 2.9zm-84.6.3q1 .9 2.3 1.2c-.2-1.3 1.4-3.4 0-4-.8.7.3 3.3-1.2 3.4-.2-1.2 1-2.8-.2-3.4q0 1.6-.8 2.8zm78.5-.5c.6 0 1.3-2 .2-2 .1 1-.2 1.4-.2 2m-102.5-1.2c1.4 1.2 3.6 1 5.4.6-.6-1.1-4.5-1.5-5.4-.6m26.9 3.1c1.2.1 1.7-3.3.5-3.6 0 1.7-.2 1.9-.5 3.6m1.7-.6c1.2.3 1.2-3.4 0-3 .3 1.2-.6 2.4 0 3m18-2.5H213c-.2 1.2 1.4 1.2 1.1 0m55.5 3.7h1.4c0-1.4 1-2 1.1-3.4q-.4 0-.8-.3c-.3 1.4-1.3 2.3-1.7 3.7m5-1.4c.7 0 .6-.6.7-1.1-.3 0-.3-.4-.8-.3-.2 1-.2.6 0 1.4m-101 .2c0-2.1-3.8-.5-5.2-1.3 0 2.1 3.6.7 5.1 1.3m99 1.2c.3-.6 1.7-2.4.3-2.5-.1.5-1.5 2.4-.2 2.5m1.1.2c1 0 1-1.7 0-1.7zm-99.6-.6q-2.1-.5-4.8-.5c.2 1.2 4.1 1.7 4.8.5m-4 2.1c1.4-.7 2.9.3 4.8 0-.3-1.7-3.9-.3-5.1-1.1 0 .5.3.5.2 1.1zm.6 1.1c1.7-.2 3.6 1 5.1 0-.4-.5-4.1-1.1-5.1 0m5.6 1.8c-.7-1.4-3.8-.4-5.2-1.2.6 1.6 3.2 1 5.2 1.2m1.5 1c-1.2-1.2-4.2.3-5.8-.8 0 2 4.4 1.1 5.8.8m3.8 22.4c0-.6.4-.6.3-1.2-1 .3-.6.3-1.4 0-.1 1 .7.9 1.1 1.2m0 2.9q-.1.4-.8.2.1 1.4 2 1.1c-.8-.9-1-2.5-2-3.4.5 0 1-.8 0-.6q-1.2 2 .8 2.5zm0-1.8c.7 0 .5 1.2 1.2 1.2.2-.7 1.6 0 2.3-.2 0-1.3-3.1-1.8-3.5-.8zm-3.8.8c-.4 1.3 2.2 1.2 2.2.3-.6-.8-1-.3-2.2-.3m13 2.9c-.2 1 .3 1 .2 1.7 1.6-1.2 3-2.7 5.2-3.4q0-.7-.6-.8c-1.7.7-3 1.8-4.8 2.5m-14.5-1.4q0-1-1.2-.8 0 1.2 1.2.8m10 .3c.2-1.6-3-1.4-3.7-.8.5.9 2.7.3 3.6.8m-14.2.3h1.4q.2-1-.6-1.1c0 .5-1.1.2-.8 1m6.3.3c.3.7 1.6 0 2.3.3q0-1-.6-1.4c0 .9-1.8 0-1.7 1.1m-15.5 1q0-1.7-2-1.4.6 1.3 2 1.3m.5 0q1 .1 1.2-.5-.6-.6-1.4-.8c-.1.7.6.5.2 1.3m2.6.3c0-1-.7-2.3-1.4-1.4.7.2.3 1.6 1.4 1.4m1.3.3c.6-.8-.2-2.2-1.3-2q.4 1.5 1.3 2m.4-1.5c.7 1.2 2.2-.3 3.6 0-.8-1.3-3 0-3.6 0m184.2 1.5q-.6-1.3-2-2 .5 1.6 2 2m-162.5-.3c-.8 1.1-3.3-.3-5.1 0 1.1.8 5.3 1.2 6 .8-.7 0-.2-1-.3-1.4-1.8-.7-4.2-.6-6.5-.8.9 1.5 4.2.7 6 1.4m4.5-.6c-1 .6-1 1.8-2 2.9q-3.6-.9-7.6-1.2c1 1.5 3.6-.2 4.2 1.4-5.4-.6-12.2 0-17.3 1.4 4 0 10.4-1.5 15.4-.6-4.7.8-10.8.1-14.8 1.7 1.3-.2 3.2.3 4.8.2 3.4 0 8.7-2 11.3.3-1.7-.4-3.5-.7-5.1 0q3.2 0 6 .8c.7-.7-2-2.3-.3-3.1-.6 5.7 18.3 5.1 14.8-1.4-3.6-.6-5.9-5-9.4-2.5zm151.4 1c-1.6 1.2-4.1 4.4-2.5 5.3 1.3-3.2 4-5 7-6.2-1-1-3.2 0-4.5.8m-176.3 0c.9-.1 2.1 0 2.2-.8-.6.4-2.1-.1-2.2.8m9.9-.6c0 1.5 2.2.6 2.9.3-.7-1-1.4 0-2.9-.3m4.8 0c-1 .4-1.7-.6-2 0 .6.4 2 1.6 2 0m-21.3 2.2c-.3-.9-.5-2-1.7-2.3.5 1 .4 2.3 1.7 2.3m-1.7 0c-.3-.7-.1-2-1.1-2q-.1 1.7 1.1 2m15-1h1.4c.2-1.2-1.4-1-1.4 0m-17.3 1c-.2-.7-.2-1.6-1.1-1.7-.5.5.2 1.6 1.1 1.7m1.2 0a3 3 0 0 0-.8-1.7c0 .8 0 1.7.8 1.7m6 .4q0-2-1.8-2 0 1.8 1.7 2m2-1.8q.5 1.8 2 2-.2-1.5-1.3-2.3 0 .3-.6.2zm4.5.4c.4.3 2.1.6 2.3 0-.4-.7-1.6-.6-2.3 0m171.7 7.5c1-.7.4-3 1.7-3.4 0 1.6-.8 2.5-1.1 4 1.6-.2 1.2-2.4 2.3-3 1 1.3-2.2 3.1-.6 4.1 1-1 1.1-3 2.3-4q0 .7.2.8c.4-.5 1.4-1.8 2-1.1-1.3 1.3-3.7 2.9-3.1 4.8.8-1 1.1-2.2 2.3-2.9 0 1.8-1.4 2.1-1.8 3.5 2.3 0 1.5-2.9 3.1-3.5-.2 1.8-1.1 2.7-1.7 4 1.7 0 1.3-2.4 2-3.4.9-1.4 2.4-1.8 4-2.5-.5-1.1 0-2.9.8-3.7-1.3.3-1.4-.6-2.3-.8-1 .6-1 2.2-1.7 2.9-.8-1.7.8-2.2 1.1-3.7-4.2-1.1-11 2.7-9.6 8zm-179.9-6.5q-.1-1.2-1.1-1.4c0 .8 0 1.6 1.1 1.4m3.8.4q-.4-1.4-1.7-1.8c-.5.7.4 1.9 1.7 1.8m2.2-1c.8-.5 1.6.6 1.9-.5-.3-.4-2-.3-2 .5m-12.6 1q0-1.4-1.2-1.4c-.6.6 0 1.7 1.2 1.4m22.6-.6c1.1-.2 3 .3 3.7-.2-.8-.7-3.2-.8-3.7.2m-9.6.6c1.1.9 4.8.4 6-.3-1.7-.8-4.3-.2-6 .3m9-1h-2.8c-.4 1.3 3 1.3 2.8 0m-17.2 1.5c0 1 1.6 1.2 1.3 0-.9-.2-.5-.2-1.3 0m5.7.8c0-.9-.8-.8-1.7-.8 0 1 .8.8 1.7.8m188.2.6c1 0 1.3-.8 1.8-1.4-1.3-.2-1.4.7-1.8 1.4m-185.1-.6c-.6 0-.7-.5-1.4-.5-.3.8 1.1 1.2 1.4.5m185.1 3.5c-.5-.6-.8 0-1.7 0-1.3 1.2-3.4 4.8-3 5.9 1-.1 1.4-3.4 2.8-4.2.2 2-2.5 3.5-1.2 4.8 1-1 .9-3.2 2.3-3.7.2 2-3 3.8-1.1 4.8 1-1.6 1.1-4 2.5-5.1q0 1.1-.2 2c1.6.5.9-1.2 2-1.2 0 2.6 3.7 1.7 4.2 4-1 .3-1.5 1.1-2.6.5 0 1-1.7 1.8-1.1 2.6 1.5.2 1-1.6 2-1.8.2 1-.7 1.5.2 1.8.8-.6.4-2.3 1.7-2.6.1 1.2-.5 1.4-.2 2.6 1.9-.3.2-2.4 1.9-2.9.2 1.3-1 2.7.8 2.5 0-1 0-2.2.8-2.3v2c1.6.3 0-2.7 1.7-2.3-.2 3.3.7-1 1.4 1.7.1-.5-.4-1.5.2-1.4.7 1 2.4 1.3 3.5.3 0-4.2-2-6.3-4.3-8.3.7 2 2.2 3.3 3.1 5.2-4.5 1.1-4.1-7.3-9.4-7.3 0-.8 1.9.3 1.4-.8-3.8-.2-7.5-1.4-7.9 3zm-196.2-2q-.1-1.1-.8-1.4c0 .7 0 1.5.8 1.4m6.5-.6c-.6-.2-.8-.9-1.7-.8-.1.8 1.1 1.6 1.7.8m-6 .8c1 .5 1-1.8 0-1.3zm4-.2c0-.7 0-1.2-.8-1.1 0 .7 0 1.2.8 1.1m-1.3.6c.4-.5 0-1.6-1.2-1.4 0 1 0 1.6 1.2 1.4m208.4 6.2c-2.6-1.5-2.6-5.6-5.4-6.8 1.6 2.2 3 6.2 5.4 6.8m-183.8-4.6c-3.8-2-10.2-1.8-15-1.4 5 .5 10.4.6 15 1.4m153.7-1q0 1 1.1 1.1c0-.3.5-.6.3-1.1-1 0-1-.6-1.4 0m16.1 7c.6 0 .6.3 1.2.2 0-.6.3-.6.2-1.2-.6 0-.6-.3-1.2-.2 0 .6-.3.6-.2 1.1m-2.7 2.3q1.8-.3 2-2.5c-.4 0-.7-.5-1.2-.2 0 1.3-1.5 1.8-.8 2.8zm4.2-1.4c1.6.4 1.6-1.2.6-1.3.2.9-.8.5-.6 1.3m-2.9 2 .8.2c.3-.9 1-1.1 1.2-2.3-.4 0-.4-.3-.8-.2-.2 1-1 1.1-1.2 2.3m1.8.6c1.1 0 1.1-1.3 1.7-2-1.4-.1-1.4 1.2-1.7 2m-90.6-69c-2-1.8-4.8-4.3-7.3-4.7 2.2 1.7 4.4 3.6 7.3 4.6m-4.6 2c-.5-.9.2-2.7-.8-3-.5.8 0 2.6.8 3"/><path d="M199.6 152.8c3.1 1.1 7.8 1.4 7.7 5.3-1.1-2.7-4.2-3.7-7.3-4.5-.3 1.2.4 1.6.5 2.5 1 0 .8-.7 1.2-1.2 1.3 1.6 3.8 2 3.7 4.8-2.3 1.4-5.3-.5-5.8-2.8 1.3 1.2 2 3 5.2 2.5-3.3-.4-4.4-3-6-5.2.8-.3.4-.6.8-1.7zm2.9 5.6c.6-.2 1.8.3 2-.3-.9-.2-.7-1.1-1.8-1.1.1.7-.5.6-.2 1.4"/></g></svg>